<?xml version="1.0" standalone="no"?>
<!DOCTYPE svg PUBLIC "-//W3C//DTD SVG 20010904//EN"
 "http://www.w3.org/TR/2001/REC-SVG-20010904/DTD/svg10.dtd">
<svg version="1.0" xmlns="http://www.w3.org/2000/svg"
 width="300.000000pt" height="300.000000pt" viewBox="0 0 300.000000 300.000000"
 preserveAspectRatio="xMidYMid meet">
<metadata>
Created by potrace 1.10, written by Peter Selinger 2001-2011
</metadata>
<g transform="translate(0.000000,300.000000) scale(0.050000,-0.050000)"
fill="#ffffff" stroke="none">
<path d="M2610 5752 c-2036 -301 -3046 -2567 -1906 -4275 1053 -1579 3506
-1585 4542 -12 1318 2002 -299 4632 -2636 4287z m940 -89 c2068 -456 2837
-2983 1372 -4509 -1680 -1749 -4633 -552 -4632 1876 1 1723 1585 3002 3260
2633z"/>
<path d="M2840 5179 c-93 -41 -228 -89 -300 -106 -167 -38 -352 -108 -390
-146 -62 -62 -20 -175 50 -132 57 36 57 31 64 -365 8 -468 71 -603 397 -851
205 -156 211 -172 28 -77 -83 43 -167 78 -187 78 -21 0 -60 36 -90 80 -29 44
-66 80 -82 80 -17 0 -30 8 -30 17 0 9 -23 43 -51 75 -81 94 -89 105 -90 132 0
14 -13 43 -29 64 -16 20 -34 77 -41 125 -15 96 -23 103 -61 52 -21 -30 -32
-31 -67 -10 -51 32 -52 13 -1 -70 46 -76 74 -82 99 -20 18 45 18 45 20 2 1
-51 -53 -77 -92 -45 -42 35 -33 -9 14 -69 45 -57 89 -69 106 -28 6 16 10 17
11 2 3 -34 -52 -73 -67 -48 -8 12 -24 21 -36 21 -12 0 3 -27 35 -60 59 -62 99
-75 117 -39 5 11 8 9 4 -5 -3 -15 -24 -25 -48 -24 -57 2 -54 -24 7 -64 27 -18
45 -40 39 -50 -7 -10 16 -34 50 -53 33 -19 61 -46 61 -60 0 -28 11 -31 150
-34 114 -3 298 -79 416 -174 42 -34 82 -56 89 -49 6 7 28 -3 48 -21 34 -30 40
-31 72 -1 24 21 46 26 65 14 36 -22 -108 -89 -146 -68 -13 8 -101 62 -196 122
-245 153 -397 158 -462 15 -33 -72 -63 -61 -170 61 -138 157 -157 130 -63 -88
46 -109 50 -107 -91 -70 -151 40 -155 31 -32 -85 224 -212 389 -243 446 -82
20 56 81 42 299 -69 274 -138 329 -138 613 2 244 120 289 125 332 42 64 -125
221 -97 426 74 74 62 138 116 142 119 40 32 -102 18 -241 -24 -28 -9 -26 6 14
105 82 199 62 239 -50 97 -102 -131 -150 -151 -202 -84 -102 129 -204 140
-391 43 -160 -84 -193 -78 -55 10 107 68 294 130 328 109 34 -20 159 10 159
39 0 14 23 37 50 52 28 15 50 37 50 50 0 13 18 40 40 60 22 20 40 45 40 57 0
11 14 35 31 54 16 18 34 52 38 75 5 22 23 64 42 93 18 28 24 51 13 51 -11 0
-24 -11 -29 -24 -10 -30 -75 -6 -75 28 1 18 7 17 21 -4 17 -25 27 -21 69 26
63 71 69 126 10 90 -33 -21 -44 -19 -69 14 -29 39 -30 38 -30 -14 -1 -29 -10
-59 -21 -66 -11 -7 -20 -34 -20 -60 0 -25 -7 -50 -15 -53 -8 -4 -33 -42 -55
-86 -22 -43 -92 -130 -155 -193 -63 -63 -115 -124 -115 -136 0 -12 -21 -22
-47 -22 -26 0 -100 -27 -165 -60 -129 -66 -253 -160 -212 -160 15 0 21 -9 14
-20 -7 -11 -21 -20 -32 -20 -11 0 -15 9 -8 20 7 11 -3 15 -24 8 -46 -15 -12
15 208 186 371 287 485 518 455 920 -16 215 2 383 37 348 33 -33 70 -27 94 18
48 90 -66 166 -363 240 -92 23 -243 74 -337 113 -93 39 -179 73 -190 77 -11 3
-96 -29 -190 -71z m440 -91 c0 -13 11 -29 25 -35 14 -5 -13 -11 -60 -11 -65
-2 -85 5 -85 30 0 22 -11 28 -33 20 -18 -7 -49 2 -70 21 -35 31 -39 31 -76 -2
-21 -19 -48 -29 -60 -22 -12 8 -27 -1 -33 -18 -8 -21 -36 -30 -85 -29 -40 0
-62 6 -48 11 14 6 25 22 25 37 0 14 55 48 123 75 l123 49 127 -50 c70 -28 127
-62 127 -76z m7 -85 c213 -8 253 -30 253 -143 0 -40 -6 -79 -13 -87 -8 -7 -14
-65 -15 -128 -2 -125 -44 -205 -128 -244 -76 -35 -84 -26 -84 89 0 61 9 110
19 110 27 0 66 140 58 209 -8 64 -56 96 -58 38 -1 -30 -5 -29 -20 8 -22 57
-539 72 -539 16 0 -16 -9 -34 -20 -41 -12 -7 -19 -1 -15 14 3 14 -8 26 -25 26
-44 0 -33 -125 13 -163 20 -16 24 -23 9 -15 -22 11 -25 4 -13 -34 9 -26 22
-97 29 -158 9 -84 16 -99 26 -63 15 54 56 41 56 -18 0 -69 -131 -52 -209 26
-71 71 -114 220 -74 260 14 14 11 35 -11 68 -91 139 -5 219 249 231 139 6 194
17 219 42 32 31 36 31 72 -1 29 -27 83 -37 221 -42z m-749 11 c-71 -54 -101
-186 -59 -253 12 -19 11 -39 -4 -57 -17 -20 -16 -37 3 -68 21 -35 20 -46 -9
-74 -25 -24 -36 -26 -43 -7 -17 46 -46 25 -46 -34 0 -72 -32 -161 -59 -161
-12 0 -19 82 -17 206 2 167 -5 222 -36 285 l-38 79 150 53 c167 60 205 67 158
31z m1147 -34 l134 -43 -31 -62 c-18 -34 -37 -114 -43 -178 -8 -94 -17 -117
-45 -117 -45 0 -84 -47 -79 -94 9 -91 -2 -175 -20 -147 -15 24 -23 24 -49 2
-18 -14 -32 -17 -32 -7 0 11 -18 18 -40 16 -43 -3 -164 -107 -151 -129 5 -7
-22 -13 -60 -13 -40 0 -72 12 -79 28 -5 16 -23 23 -40 17 -16 -6 -34 -3 -41 8
-16 26 -149 24 -149 -2 0 -13 -17 -16 -40 -9 -25 8 -44 3 -51 -15 -17 -46
-144 -35 -157 14 -26 95 28 138 58 46 12 -38 16 -40 24 -10 13 50 446 54 446
4 0 -17 10 -25 21 -18 12 7 17 26 11 41 -7 18 3 28 30 28 105 0 228 114 250
232 7 37 20 63 30 57 10 -6 18 7 18 29 0 22 -9 45 -21 53 -11 7 -14 32 -7 56
24 75 12 158 -31 216 -23 31 -30 52 -16 48 14 -4 86 -27 160 -51z m-785 -260
c0 -11 -11 -21 -25 -22 -20 -1 -20 -3 0 -11 28 -12 35 -87 7 -87 -20 0 -43
102 -29 125 14 22 47 18 47 -5z m248 8 c19 -7 32 -36 32 -71 0 -33 -8 -54 -18
-48 -10 6 -14 29 -8 51 6 22 1 40 -12 40 -14 0 -22 -57 -22 -165 l0 -165 -88
0 -88 0 -12 88 c-7 48 -12 131 -12 185 l0 97 98 0 c54 0 113 -5 130 -12z m130
-103 c1 -14 -7 -25 -18 -25 -11 0 -22 25 -23 55 -2 30 -10 1 -17 -65 l-13
-120 -4 123 c-4 160 63 189 75 32z m-742 -144 c15 -32 55 -77 90 -99 41 -26
52 -41 31 -42 -23 0 -30 -12 -23 -40 6 -22 1 -40 -12 -40 -12 0 -22 -13 -22
-30 0 -16 -9 -30 -20 -30 -11 0 -20 36 -20 81 0 86 -39 122 -88 81 -22 -19
-29 -11 -36 37 -7 49 -2 61 27 61 21 0 37 9 37 20 0 11 -9 20 -20 20 -11 0
-20 9 -20 20 0 43 52 17 76 -39z m727 -106 c-17 -17 -23 -1 -21 66 l2 89 21
-66 c16 -48 15 -72 -2 -89z m477 90 c0 -30 6 -75 13 -100 10 -38 4 -45 -41
-45 -58 0 -78 126 -28 176 38 38 56 28 56 -31z m-560 -39 c0 -55 -6 -68 -23
-51 -12 12 -16 44 -9 74 18 73 32 63 32 -23z m-280 -6 c0 -33 -9 -60 -20 -60
-11 0 -20 27 -20 60 0 33 9 60 20 60 11 0 20 -27 20 -60z m-480 -70 c0 -54 67
-73 87 -25 5 14 11 -18 11 -70 2 -110 69 -136 129 -50 31 45 32 45 44 4 16
-55 208 -66 211 -12 1 21 5 24 11 8 14 -35 67 -31 67 5 0 50 93 37 108 -15 12
-44 14 -44 42 -7 25 33 31 34 41 7 18 -46 189 -42 189 5 0 19 18 50 40 70 27
24 40 28 40 11 0 -20 7 -20 34 2 23 18 29 19 19 2 -9 -14 -6 -25 5 -25 11 0
24 7 29 15 5 8 55 12 111 8 123 -8 131 -46 56 -262 -44 -128 -94 -183 -94
-103 0 31 -13 42 -50 42 -40 0 -50 10 -50 50 0 34 -11 50 -35 50 -30 1 -31 3
-5 20 27 18 27 22 0 40 -70 45 -136 21 -175 -65 -14 -30 -35 -76 -47 -102 -22
-47 -184 -141 -206 -118 -44 43 -3 153 64 174 77 24 47 80 -46 85 -165 8 -250
-44 -250 -152 0 -105 -24 -142 -82 -127 -51 13 -49 45 4 45 38 0 40 8 27 85
-30 181 -71 223 -106 110 -43 -143 -44 -172 -8 -192 41 -23 21 -53 -24 -36
-18 7 -31 36 -31 67 -1 127 -46 129 -70 3 -27 -145 -132 -20 -189 225 -32 138
-27 192 19 204 22 6 40 25 40 42 0 18 9 32 20 32 11 0 20 -22 20 -50z m980
-269 c0 -10 -9 -24 -20 -31 -11 -7 -20 -39 -20 -71 0 -33 -10 -59 -22 -59 -21
0 -10 125 15 165 13 21 47 19 47 -4z m32 -104 c-3 -62 -52 -73 -52 -12 0 27 6
54 13 61 22 22 42 -3 39 -49z m-432 -39 c0 -21 -7 -38 -15 -38 -21 0 -65 73
-52 86 22 22 67 -11 67 -48z m-110 -98 c7 -12 21 -15 31 -9 11 6 19 0 19 -15
0 -16 -24 -26 -60 -26 -33 0 -60 2 -60 3 0 51 48 83 70 47z m530 -7 c0 -16
-206 -134 -216 -124 -13 13 -15 11 86 78 69 46 130 68 130 46z m-200 -53 c-46
-36 -100 -53 -100 -31 0 13 105 69 130 70 11 0 -2 -17 -30 -39z m217 -19 c-51
-32 -99 -68 -106 -80 -16 -26 -51 -28 -51 -3 0 24 181 139 220 140 17 1 -12
-25 -63 -57z m23 -60 c-91 -80 -120 -95 -120 -63 0 16 177 141 200 142 6 0
-30 -36 -80 -79z m-419 -175 c76 -82 98 -156 46 -156 -13 0 -53 45 -90 100
-37 55 -114 131 -171 170 -58 38 -105 77 -105 86 -2 36 245 -118 320 -200z
m-314 106 c132 -94 186 -148 245 -242 l38 -60 -52 41 c-92 71 -385 349 -369
349 9 0 71 -40 138 -88z m324 17 c158 -94 205 -141 174 -172 -18 -18 -46 -3
-121 68 -54 50 -126 105 -161 123 -35 18 -63 37 -63 43 0 25 64 2 171 -62z
m63 50 c108 -41 230 -123 212 -141 -12 -12 -73 17 -156 72 -143 93 -152 105
-56 69z m-326 -367 c227 -137 216 -137 450 3 183 110 359 155 409 105 20 -20
27 -151 9 -185 -11 -22 -10 -35 3 -35 12 0 21 -19 21 -43 0 -41 -2 -41 -37
-10 -57 52 -109 41 -328 -71 -279 -141 -338 -141 -597 0 -194 105 -270 124
-314 80 -17 -17 -24 -18 -24 -1 0 12 9 28 19 34 10 7 16 59 12 117 -11 176 92
178 377 6z m-521 -19 c31 -11 33 -19 13 -43 -15 -19 -17 -30 -4 -30 12 0 18
-30 14 -70 -4 -49 4 -76 27 -90 28 -16 26 -19 -13 -19 -46 -1 -145 165 -116
194 6 6 0 25 -13 42 -20 24 -20 28 0 16 14 -9 25 -8 25 2 0 9 -11 30 -25 45
-16 19 -11 18 15 -2 22 -18 57 -38 77 -45z m1628 39 c-37 -28 -49 -63 -14 -42
20 13 19 1 -9 -128 -20 -88 -172 -181 -172 -104 0 10 16 16 35 15 28 -2 35 13
35 72 0 50 9 75 27 75 23 0 23 6 3 30 -14 17 -22 33 -18 35 105 61 130 74 138
74 6 0 -6 -12 -25 -27z"/>
<path d="M2512 3348 c-22 -57 -15 -99 12 -72 33 33 77 30 64 -4 -13 -33 117
-104 151 -83 12 8 16 1 10 -15 -9 -22 1 -26 38 -19 38 7 48 1 46 -26 -2 -19 7
-38 20 -43 31 -11 24 96 -8 131 -14 15 -39 22 -56 16 -17 -7 -29 0 -29 16 0
47 -40 57 -81 20 -22 -20 -45 -29 -52 -22 -8 7 -3 13 11 13 13 0 19 9 12 20
-7 11 -3 20 9 20 11 0 21 10 21 22 0 13 -16 18 -36 13 -19 -5 -47 3 -60 18
-34 36 -57 34 -72 -5z"/>
<path d="M3489 3350 c-5 -16 -13 -43 -18 -60 -13 -40 -51 -39 -51 1 0 17 9 26
20 19 11 -7 20 -3 20 8 0 35 -35 42 -60 12 -13 -16 -33 -25 -42 -19 -10 6 -18
-2 -18 -19 0 -18 -12 -26 -28 -20 -46 18 -112 -28 -98 -67 10 -29 7 -30 -15
-10 -50 46 -66 26 -20 -24 51 -54 87 -51 66 5 -11 30 -8 31 22 6 29 -24 39
-23 70 5 20 18 42 27 50 20 7 -8 13 -3 13 9 0 13 13 18 28 12 15 -6 34 -1 41
11 8 12 22 17 32 10 10 -6 35 -2 54 9 32 19 32 21 -5 22 -22 0 -31 7 -20 15
11 8 23 31 26 50 7 43 -53 48 -67 5z"/>
<path d="M3060 3180 c-15 -10 -52 -13 -81 -7 -43 9 -56 2 -65 -35 -14 -54 -2
-78 38 -78 17 0 26 7 21 16 -21 33 19 55 77 42 33 -7 49 -14 35 -16 -36 -3
-31 -42 6 -42 44 0 57 52 25 98 -19 27 -37 34 -56 22z"/>
<path d="M1995 5008 c-8 -8 -9 -51 -3 -96 9 -65 6 -76 -12 -52 -18 24 -21 12
-13 -56 8 -77 6 -83 -22 -60 -32 26 -32 -6 0 -124 5 -16 5 -23 0 -15 -24 42
-38 3 -34 -95 4 -114 37 -179 82 -162 15 6 27 3 27 -7 0 -34 -50 -36 -88 -3
-35 30 -37 29 -23 -18 18 -58 84 -134 102 -115 24 23 45 155 25 155 -11 0 -14
27 -5 65 11 53 8 60 -13 40 -36 -34 -71 -31 -86 8 -11 26 -8 28 16 9 23 -19
35 -15 60 21 43 61 44 112 2 77 -19 -16 -30 -17 -30 -4 0 12 9 27 20 34 40 25
68 97 32 84 -40 -16 -40 -5 1 58 25 39 28 55 10 66 -17 11 -13 25 17 52 46 42
52 70 13 70 -15 0 -35 19 -45 41 -10 23 -25 35 -33 27z"/>
<path d="M4020 4991 c0 -16 -16 -38 -35 -48 -32 -19 -32 -22 4 -62 29 -32 42
-36 54 -16 23 36 21 155 -3 155 -11 0 -20 -13 -20 -29z"/>
<path d="M4073 4864 c-10 -15 -35 -33 -56 -41 -39 -15 -39 -15 2 -67 49 -63
52 -79 9 -62 -28 10 -29 6 -8 -34 16 -30 17 -49 4 -58 -24 -14 23 -142 52
-142 21 0 64 89 64 134 0 29 -3 29 -37 -1 -20 -18 -42 -27 -49 -21 -7 7 7 28
30 47 38 31 40 44 24 152 -12 77 -24 110 -35 93z"/>
<path d="M4015 4430 c5 -28 18 -55 27 -61 10 -6 18 -21 18 -33 0 -13 -11 -12
-30 4 -41 34 -42 -56 -1 -111 43 -58 94 1 102 118 3 50 11 101 19 112 17 28
-1 26 -53 -4 -34 -20 -44 -20 -51 0 -17 46 -41 26 -31 -25z"/>
<path d="M3301 2694 c-208 -72 -247 -549 -57 -683 58 -40 174 -40 232 0 40 29
45 29 56 0 7 -17 30 -31 51 -31 36 0 38 14 33 195 l-6 195 -120 0 c-116 0
-120 -2 -126 -55 -6 -48 0 -55 46 -55 48 0 52 -6 46 -75 -8 -94 -88 -109 -130
-25 -27 53 -32 275 -8 360 22 79 99 79 115 -1 12 -57 18 -62 72 -51 33 7 68
12 78 12 29 0 19 88 -16 138 -59 85 -159 113 -266 76z"/>
<path d="M666 2630 c2 -67 5 -70 76 -70 l74 0 -11 -291 -11 -291 95 6 95 6 -3
285 -3 285 71 0 c68 0 71 3 71 70 l0 70 -228 0 -228 0 2 -70z"/>
<path d="M1180 2360 c0 -187 0 -347 0 -355 0 -8 85 -18 190 -21 l190 -5 0 70
0 71 -110 0 -110 0 0 80 c0 80 0 80 80 80 78 0 80 2 80 70 0 68 -2 70 -80 70
-78 0 -80 2 -80 70 l0 70 98 0 c93 0 98 3 106 60 12 81 14 80 -187 80 l-177 0
0 -340z"/>
<path d="M1620 2339 l0 -361 175 6 175 6 6 65 c7 65 6 65 -85 65 l-91 0 0 290
0 290 -90 0 -90 0 0 -361z"/>
<path d="M2160 2685 c0 -12 -79 -357 -150 -661 -11 -43 -6 -46 64 -40 70 5 77
12 82 71 6 62 10 65 94 65 84 0 88 -3 94 -65 6 -63 10 -65 104 -71 93 -6 97
-5 84 40 -7 25 -46 188 -87 361 l-74 315 -105 0 c-59 0 -106 -7 -106 -15z
m120 -251 c0 -35 8 -93 19 -129 18 -63 16 -65 -43 -65 l-61 0 14 95 c28 190
71 250 71 99z"/>
<path d="M2595 2345 l5 -355 64 0 64 0 -5 185 c-8 232 8 231 104 -5 l77 -190
74 0 73 0 1 360 0 360 -65 0 -65 0 -6 -185 -6 -185 -79 185 -79 185 -81 0 -81
0 5 -355z"/>
<path d="M3820 2688 c0 -14 -134 -599 -152 -664 -13 -44 -8 -46 64 -40 72 5
79 11 84 71 6 62 10 65 94 65 84 0 88 -3 94 -65 6 -63 10 -65 104 -71 77 -5
95 -1 86 22 -5 15 -45 178 -87 361 l-76 333 -105 0 c-58 0 -106 -5 -106 -12z
m129 -343 l15 -105 -61 0 c-58 0 -59 2 -43 65 9 36 23 101 30 145 17 96 36 62
59 -105z"/>
<path d="M4254 2345 l5 -355 68 -6 68 -6 -10 191 c-13 239 5 239 102 1 l77
-190 78 0 78 0 0 360 0 360 -69 0 -69 0 -6 -185 c-6 -171 -8 -180 -32 -125
-145 339 -125 310 -214 310 l-81 0 5 -355z"/>
<path d="M4920 2688 c0 -14 -134 -599 -152 -664 -13 -44 -8 -46 64 -40 72 5
79 11 84 71 6 62 10 65 94 65 84 0 88 -3 94 -65 6 -63 10 -65 104 -71 93 -6
97 -4 85 40 -7 25 -46 188 -87 361 l-75 315 -105 0 c-58 0 -106 -5 -106 -12z
m126 -314 l27 -134 -59 0 c-58 0 -59 0 -45 95 32 221 39 224 77 39z"/>
<path d="M2354 1759 c-307 -89 -247 -719 68 -719 174 0 258 117 258 359 0 273
-131 417 -326 360z m125 -158 c54 -100 16 -441 -49 -441 -79 0 -126 283 -70
429 23 61 89 68 119 12z"/>
<path d="M1700 1690 c0 -67 3 -70 70 -70 l70 0 0 -290 0 -290 90 0 90 0 0 289
0 288 65 7 c57 5 66 14 71 71 l7 65 -232 0 -231 0 0 -70z"/>
<path d="M2760 1400 l0 -360 120 0 c258 0 367 109 367 369 -1 256 -93 351
-342 351 l-145 0 0 -360z m266 205 c98 -109 42 -445 -75 -445 -6 0 -11 108
-11 240 0 252 14 284 86 205z"/>
<path d="M3420 1725 c-1 -39 -129 -595 -151 -650 -11 -30 -1 -35 68 -35 76 0
81 3 87 65 10 106 167 111 187 6 13 -69 16 -71 101 -71 105 0 104 -30 18 333
-39 163 -75 317 -80 342 -14 60 -230 70 -230 10z m128 -265 c7 -55 19 -114 25
-130 9 -23 -4 -30 -53 -30 -57 0 -63 5 -54 45 6 25 17 88 25 140 17 117 40
108 57 -25z"/>
<path d="M3760 1755 c0 -3 41 -109 91 -235 85 -214 90 -239 78 -356 l-12 -126
96 6 97 6 -7 121 c-5 103 6 149 78 330 46 115 88 220 93 234 7 17 -13 25 -68
25 l-78 0 -37 -140 c-20 -77 -42 -140 -49 -140 -7 0 -29 63 -49 140 l-36 140
-99 0 c-54 0 -98 -2 -98 -5z"/>
</g>
</svg>
