<?xml version="1.0" standalone="no"?>
<!DOCTYPE svg PUBLIC "-//W3C//DTD SVG 20010904//EN"
 "http://www.w3.org/TR/2001/REC-SVG-20010904/DTD/svg10.dtd">
<svg version="1.0" xmlns="http://www.w3.org/2000/svg"
 width="300.000000pt" height="300.000000pt" viewBox="0 0 300.000000 300.000000"
 preserveAspectRatio="xMidYMid meet">
<metadata>
Created by potrace 1.10, written by Peter Selinger 2001-2011
</metadata>
<g transform="translate(0.000000,300.000000) scale(0.050000,-0.050000)"
fill="#ffffff" stroke="none">
<path d="M920 3730 l0 -50 380 0 380 0 0 50 0 50 -380 0 -380 0 0 -50z"/>
<path d="M1780 3730 l0 -50 545 2 545 1 -100 48 c-96 47 -116 48 -545 49
l-445 0 0 -50z"/>
<path d="M3080 3730 l0 -50 322 0 c286 0 321 4 310 32 -7 17 -12 40 -12 50 0
10 -135 18 -310 18 l-310 0 0 -50z"/>
<path d="M4181 3741 c-12 -21 -21 -43 -21 -50 0 -6 146 -11 325 -11 l325 0 3
50 3 50 -307 0 c-284 0 -309 -3 -328 -39z"/>
<path d="M920 3520 l0 -60 381 0 382 0 -7 55 -6 55 -375 5 -375 6 0 -61z"/>
<path d="M1780 3520 l0 -60 600 0 c619 0 623 0 579 81 -19 37 -47 39 -600 39
l-579 0 0 -60z"/>
<path d="M3080 3520 l0 -60 360 0 c198 0 360 4 360 9 0 4 -9 31 -20 60 l-19
51 -341 0 -340 0 0 -60z"/>
<path d="M4103 3520 l-21 -60 356 0 c387 0 381 -1 367 70 l-10 50 -335 0 -336
0 -21 -60z"/>
<path d="M2805 3364 c-160 -5 -165 -7 -165 -55 0 -78 330 -77 345 1 12 63 19
61 -180 54z"/>
<path d="M1140 3342 c0 -10 -5 -33 -12 -50 -11 -28 11 -32 160 -32 170 0 172
1 172 50 0 49 -3 50 -160 50 -88 0 -160 -8 -160 -18z"/>
<path d="M2000 3310 c0 -49 3 -50 160 -50 157 0 160 1 160 50 0 49 -3 50 -160
50 -157 0 -160 -1 -160 -50z"/>
<path d="M3300 3311 l0 -51 289 0 290 0 -17 45 c-16 43 -27 45 -289 51 l-273
5 0 -50z"/>
<path d="M4032 3328 c-7 -17 -12 -40 -12 -50 0 -10 127 -18 290 -18 l290 0 0
50 0 50 -278 0 c-235 0 -280 -5 -290 -32z"/>
<path d="M1120 3110 c0 -49 2 -50 170 -50 168 0 170 1 170 50 0 49 -2 50 -170
50 -168 0 -170 -1 -170 -50z"/>
<path d="M2000 3110 l0 -50 417 0 416 0 47 50 47 50 -464 0 -463 0 0 -50z"/>
<path d="M3300 3110 c0 -66 309 -80 326 -15 9 33 9 33 12 0 2 -32 30 -35 295
-35 254 0 296 5 321 35 28 33 29 33 18 0 -10 -31 6 -35 159 -35 167 0 169 1
169 50 l0 50 -311 0 c-303 0 -311 -1 -329 -45 l-18 -45 -13 45 c-13 44 -20 45
-321 45 l-308 0 0 -50z"/>
<path d="M1127 2930 c-28 -72 6 -90 172 -90 l161 0 0 60 0 60 -161 0 c-124 0
-163 -7 -172 -30z"/>
<path d="M2000 2900 l0 -60 460 0 c474 0 492 3 414 77 -45 41 -63 43 -460 43
l-414 0 0 -60z"/>
<path d="M3300 2900 l0 -60 160 0 160 0 0 60 0 60 -160 0 -160 0 0 -60z"/>
<path d="M3703 2900 l21 -60 218 0 c224 0 258 15 258 111 0 5 -117 9 -259 9
l-259 0 21 -60z"/>
<path d="M4264 2905 c6 -55 6 -55 166 -55 160 0 160 0 166 55 l7 55 -173 0
-173 0 7 -55z"/>
<path d="M1129 2738 c-40 -64 20 -98 173 -98 l158 0 0 55 0 55 -162 0 c-89 0
-165 -5 -169 -12z"/>
<path d="M2000 2695 l0 -55 160 0 160 0 0 55 0 55 -160 0 -160 0 0 -55z"/>
<path d="M2649 2742 c-67 -65 -4 -102 173 -102 158 0 181 4 170 32 -7 17 -12
42 -12 55 0 22 -310 36 -331 15z"/>
<path d="M3300 2695 l0 -55 160 0 160 0 0 55 0 55 -160 0 -160 0 0 -55z"/>
<path d="M3769 2710 c6 -22 11 -47 11 -55 0 -33 315 -17 328 17 28 72 15 78
-169 78 -171 0 -180 -2 -170 -40z"/>
<path d="M4268 2742 c-63 -64 -3 -102 163 -102 l172 0 -7 53 c-6 52 -9 53
-163 55 -86 1 -160 -2 -165 -6z"/>
<path d="M920 2490 l0 -50 380 0 380 0 0 50 0 50 -380 0 -380 0 0 -50z"/>
<path d="M1780 2490 l0 -50 590 0 c345 0 590 8 590 18 0 10 5 33 12 50 11 29
-49 32 -590 32 l-602 0 0 -50z"/>
<path d="M3080 2490 l0 -50 270 0 270 0 0 50 0 50 -270 0 -270 0 0 -50z"/>
<path d="M3844 2489 c32 -69 172 -65 198 6 16 43 13 45 -102 45 l-119 0 23
-51z"/>
<path d="M4260 2490 l0 -50 268 0 267 0 10 50 9 50 -277 0 -277 0 0 -50z"/>
<path d="M4910 2380 c-59 -65 -21 -150 68 -150 89 0 132 58 96 130 -33 65
-114 75 -164 20z m129 -9 c39 -47 18 -120 -38 -128 -80 -11 -125 70 -70 126
40 39 77 40 108 2z"/>
<path d="M4954 2367 c-8 -7 -14 -37 -14 -65 1 -42 5 -46 22 -22 16 23 24 24
31 5 18 -44 39 -27 38 30 -1 53 -46 83 -77 52z"/>
<path d="M920 2280 l0 -61 375 6 375 5 6 55 7 55 -382 0 -381 0 0 -60z"/>
<path d="M1780 2278 l0 -63 455 9 c444 9 625 40 625 106 0 6 -243 10 -540 10
l-540 0 0 -62z"/>
<path d="M3080 2280 l0 -60 270 0 270 0 0 60 0 60 -270 0 -270 0 0 -60z"/>
<path d="M3900 2331 c0 -55 46 -117 61 -81 27 66 21 90 -21 90 -22 0 -40 -4
-40 -9z"/>
<path d="M4264 2285 l6 -55 265 -6 265 -5 0 60 0 61 -271 0 -272 0 7 -55z"/>
</g>
</svg>
