<?xml version="1.0" standalone="no"?>
<!DOCTYPE svg PUBLIC "-//W3C//DTD SVG 20010904//EN"
 "http://www.w3.org/TR/2001/REC-SVG-20010904/DTD/svg10.dtd">
<svg version="1.0" xmlns="http://www.w3.org/2000/svg"
 width="300.000000pt" height="300.000000pt" viewBox="0 0 300.000000 300.000000"
 preserveAspectRatio="xMidYMid meet">
<metadata>
Created by potrace 1.10, written by Peter Selinger 2001-2011
</metadata>
<g transform="translate(0.000000,300.000000) scale(0.050000,-0.050000)"
fill="#ffffff" stroke="none">
<path d="M1425 3625 c-116 -6 -153 -26 -105 -55 27 -17 27 -820 -1 -871 -19
-37 -12 -39 151 -39 l172 0 -31 44 c-26 37 -31 120 -31 490 0 246 -7 444 -15
442 -8 -2 -71 -7 -140 -11z"/>
<path d="M1921 3614 c-85 -29 -161 -136 -161 -224 0 -36 -18 -87 -40 -115 -22
-28 -40 -57 -40 -63 0 -7 18 -12 40 -12 46 0 62 -422 19 -501 -19 -37 -12 -39
153 -39 159 0 171 3 145 33 -18 23 -29 108 -34 270 l-7 237 68 0 c37 0 79 -11
92 -24 19 -19 24 -3 24 72 l0 95 -85 -6 c-75 -6 -86 -2 -91 37 -11 78 32 132
96 119 57 -11 154 88 127 131 -14 24 -228 17 -306 -10z"/>
<path d="M680 3291 c-11 -30 -29 -71 -40 -91 -19 -36 -17 -36 72 -6 71 24 102
26 141 8 90 -41 51 -87 -121 -146 -182 -62 -210 -83 -224 -177 -20 -136 123
-258 278 -235 74 10 103 100 43 131 -72 39 -67 126 11 172 l60 35 0 -56 c0
-172 70 -257 230 -279 97 -13 206 111 114 130 -63 13 -74 45 -85 244 -14 272
-45 306 -289 316 -168 7 -170 7 -190 -46z"/>
<path d="M2341 3301 c-12 -21 -29 -60 -39 -86 l-18 -48 89 29 c70 23 100 24
139 7 91 -42 52 -88 -122 -146 -170 -57 -230 -108 -230 -194 1 -180 275 -308
349 -164 36 68 39 88 12 71 -25 -15 -101 61 -101 100 0 17 29 48 65 70 l65 40
12 -111 c15 -128 54 -180 156 -209 122 -34 152 -26 188 50 32 67 32 70 -4 70
-61 0 -76 41 -87 231 -15 277 -64 329 -313 329 -118 0 -144 -6 -161 -39z"/>
<path d="M3066 3325 c-102 -7 -104 -8 -85 -57 10 -28 19 -73 19 -99 0 -47 6
-49 130 -49 98 0 130 7 130 28 0 61 128 70 165 12 23 -38 295 -64 295 -29 0
144 -290 271 -411 180 -50 -38 -69 -38 -69 -1 0 17 -16 28 -35 26 -19 -2 -82
-7 -139 -11z m537 -87 c16 -10 -101 -17 -283 -17 -182 0 -299 7 -283 17 15 9
143 17 283 17 140 0 268 -8 283 -17z"/>
<path d="M4008 3302 c-63 -38 -148 -133 -148 -165 0 -47 213 -17 236 33 23 49
21 50 -61 52 -82 1 -83 2 -25 19 33 10 78 12 100 5 65 -21 118 -21 153 0 23
15 54 14 100 0 l67 -22 -93 -2 c-161 -3 -94 -102 70 -102 l117 0 -38 65 c-88
150 -328 209 -478 117z"/>
<path d="M4713 3325 c-102 -6 -113 -11 -91 -38 14 -17 24 -61 21 -99 l-4 -68
126 0 c104 0 130 7 150 40 14 22 47 40 74 40 29 0 59 -17 71 -40 34 -64 260
-59 260 5 0 136 -240 232 -370 147 -44 -29 -50 -29 -50 -2 0 17 -15 28 -35 26
-19 -2 -87 -7 -152 -11z m529 -87 c17 -10 -90 -17 -272 -17 -187 0 -289 6
-271 18 36 23 506 23 543 -1z"/>
<path d="M3000 3050 c0 -48 5 -50 120 -50 115 0 120 2 120 50 0 48 -5 50 -120
50 -115 0 -120 -2 -120 -50z"/>
<path d="M3460 3051 c0 -50 3 -51 141 -51 136 0 142 2 135 45 -10 75 -276 80
-276 6z"/>
<path d="M3840 3050 l0 -50 340 0 340 0 0 50 0 50 -340 0 -340 0 0 -50z"/>
<path d="M4640 3050 c0 -48 5 -50 130 -50 125 0 130 2 130 50 0 48 -5 50 -130
50 -125 0 -130 -2 -130 -50z"/>
<path d="M5080 3050 c0 -78 248 -78 253 0 3 48 -1 50 -125 50 -123 0 -128 -2
-128 -50z"/>
<path d="M3000 2930 c0 -48 5 -50 120 -50 115 0 120 2 120 50 0 48 -5 50 -120
50 -115 0 -120 -2 -120 -50z"/>
<path d="M3460 2930 c0 -48 5 -50 130 -50 72 0 130 8 130 18 0 10 5 33 12 50
11 27 -8 32 -130 32 -138 0 -142 -1 -142 -50z"/>
<path d="M3840 2930 c0 -48 5 -50 132 -50 112 0 130 5 120 32 -7 17 -12 40
-12 50 0 10 -54 18 -120 18 -115 0 -120 -2 -120 -50z"/>
<path d="M4640 2930 c0 -48 5 -50 130 -50 125 0 130 2 130 50 0 48 -5 50 -130
50 -125 0 -130 -2 -130 -50z"/>
<path d="M5080 2930 c0 -48 5 -50 125 -50 120 0 125 2 125 50 0 48 -5 50 -125
50 -120 0 -125 -2 -125 -50z"/>
<path d="M3000 2810 c0 -48 5 -50 120 -50 115 0 120 2 120 50 0 48 -5 50 -120
50 -115 0 -120 -2 -120 -50z"/>
<path d="M3425 2821 c-13 -21 -50 -41 -83 -45 -58 -6 -59 -7 -31 -71 32 -76
97 -86 229 -33 113 45 100 66 -40 64 -67 -1 -128 5 -135 13 -8 9 54 12 139 8
152 -8 196 13 196 94 0 33 -253 6 -275 -30z"/>
<path d="M3860 2838 c0 -136 442 -257 593 -162 19 12 87 150 87 177 0 4 -36
-10 -79 -33 -102 -52 -235 -52 -301 0 -56 44 -300 59 -300 18z m375 -93 c-52
-4 -138 -4 -190 0 -52 4 -9 8 95 8 105 0 147 -4 95 -8z"/>
<path d="M4643 2792 c3 -38 -7 -83 -21 -100 -24 -29 -10 -32 146 -32 165 0
172 2 153 39 -12 21 -21 66 -21 100 l0 61 -131 0 -130 0 4 -68z"/>
<path d="M5080 2799 c0 -34 -9 -79 -21 -100 -19 -37 -12 -39 151 -39 l171 0
-32 49 c-18 27 -31 54 -31 60 13 84 3 91 -118 91 l-120 0 0 -61z"/>
<path d="M3000 2677 c0 -51 4 -53 120 -53 116 0 120 2 120 53 0 51 -4 53 -120
53 -116 0 -120 -2 -120 -53z"/>
<path d="M3000 2550 c0 -48 5 -50 120 -50 115 0 120 2 120 50 0 48 -5 50 -120
50 -115 0 -120 -2 -120 -50z"/>
<path d="M2976 2420 l-34 -60 171 0 c129 0 168 6 159 25 -7 14 -18 41 -24 60
-24 68 -230 49 -272 -25z"/>
</g>
</svg>
