 <svg  version="1.0" xmlns="http://www.w3.org/2000/svg"  width="300.000000pt" height="300.000000pt" viewBox="0 0 300.000000 300.000000"  preserveAspectRatio="xMidYMid meet">  <g transform="translate(0.000000,300.000000) scale(0.050000,-0.050000)" fill="#ffffff" stroke="none"> <path d="M5362 3938 c-109 -43 -135 -167 -53 -249 140 -140 359 52 226 198 -55 60 -109 76 -173 51z m141 -51 c49 -44 47 -137 -3 -187 -108 -108 -274 47 -179 167 48 61 127 70 182 20z"/> <path d="M5360 3801 c0 -76 39 -121 41 -46 0 33 2 33 27 0 39 -51 46 -44 44 40 -3 120 -112 126 -112 6z"/> <path d="M428 3902 c-4 -5 -8 -349 -8 -765 l0 -757 95 0 95 0 -4 765 -5 764 -82 1 c-45 0 -86 -4 -91 -8z"/> <path d="M2028 3882 c-100 -46 -162 -122 -191 -235 -20 -81 -26 -87 -89 -87 -59 0 -68 -7 -68 -50 0 -44 9 -50 70 -50 l70 0 0 -540 0 -540 80 0 80 0 0 540 0 540 194 0 194 0 -62 -65 c-281 -296 -193 -842 164 -1008 357 -166 754 114 759 536 1 134 1 134 41 97 23 -21 118 -74 212 -118 274 -129 338 -199 295 -322 -58 -167 -325 -171 -550 -9 -42 30 -42 29 -41 -70 l2 -102 99 -29 c328 -98 613 37 629 297 11 172 -51 245 -310 365 -220 102 -266 144 -266 237 0 115 70 176 214 187 181 13 205 -18 415 -524 l174 -418 -111 -229 c-133 -271 -129 -245 -36 -245 l76 0 197 475 c108 261 205 501 216 532 l20 57 51 -65 c34 -43 114 -94 238 -151 215 -100 286 -161 286 -244 0 -226 -352 -268 -566 -67 l-56 53 6 -110 c15 -277 627 -238 735 46 73 193 3 306 -282 454 -263 137 -277 149 -277 234 0 198 237 273 440 139 l80 -54 0 89 c0 102 -11 109 -191 126 -155 14 -320 -31 -392 -108 -47 -50 -317 -684 -317 -743 0 -13 -9 -23 -20 -23 -11 0 -20 12 -20 27 0 61 -318 800 -353 821 -20 12 -127 22 -237 22 -260 0 -368 -53 -423 -208 l-35 -97 -56 85 c-58 88 -164 172 -262 209 -33 12 -227 21 -465 21 l-409 0 0 77 c0 158 183 224 351 125 l69 -41 0 87 0 87 -93 12 c-142 20 -190 15 -279 -25z m814 -487 c357 -241 236 -945 -162 -945 -371 0 -520 619 -217 903 111 103 262 120 379 42z"/> <path d="M800 3551 c0 -1 -3 -264 -5 -586 l-5 -585 85 0 85 0 0 448 c0 449 0 449 50 508 107 127 312 140 414 26 l56 -63 0 -459 0 -460 80 0 80 0 0 485 c0 482 0 486 -49 557 -115 170 -422 187 -586 34 l-45 -43 0 61 c0 50 -138 115 -160 77z"/> </g> </svg> 