<?xml version="1.0" standalone="no"?>
<!DOCTYPE svg PUBLIC "-//W3C//DTD SVG 20010904//EN"
 "http://www.w3.org/TR/2001/REC-SVG-20010904/DTD/svg10.dtd">
<svg version="1.0" xmlns="http://www.w3.org/2000/svg"
 width="300.000000pt" height="300.000000pt" viewBox="0 0 300.000000 300.000000"
 preserveAspectRatio="xMidYMid meet">
<metadata>
Created by potrace 1.10, written by Peter Selinger 2001-2011
</metadata>
<g transform="translate(0.000000,300.000000) scale(0.100000,-0.100000)"
fill="#ffffff" stroke="none">
<path d="M2132 1828 c-17 -17 -17 -639 0 -656 17 -17 639 -17 656 0 17 17 17
639 0 656 -17 17 -639 17 -656 0z m194 -126 c15 -31 7 -61 -22 -74 -57 -26
-113 27 -80 77 14 22 24 26 54 23 27 -2 40 -9 48 -26z m308 -126 c52 -22 66
-64 66 -201 l0 -116 -52 3 -53 3 -3 104 c-3 110 -10 131 -46 131 -45 0 -51
-14 -56 -127 l-5 -108 -50 0 -50 0 -3 158 -3 157 56 0 c44 0 55 -3 55 -17 0
-14 2 -15 18 -1 34 31 76 35 126 14z m-306 -153 l-3 -158 -50 0 -50 0 -3 158
-3 157 56 0 56 0 -3 -157z"/>
<path d="M537 1712 c-10 -10 -17 -28 -17 -40 0 -22 34 -52 61 -52 22 0 49 32
49 58 0 47 -61 69 -93 34z"/>
<path d="M200 1495 l0 -225 140 0 140 0 0 45 0 45 -90 0 -90 0 0 180 0 180
-50 0 -50 0 0 -225z"/>
<path d="M1040 1495 l0 -225 50 0 50 0 0 54 c0 85 19 88 64 11 l38 -65 64 0
65 0 -42 58 c-22 31 -53 74 -66 94 l-26 38 58 65 58 66 -64 -3 -64 -3 -40 -58
-40 -59 -3 126 -3 126 -49 0 -50 0 0 -225z"/>
<path d="M1910 1646 l0 -74 -39 15 c-139 55 -256 -125 -171 -262 41 -66 143
-84 196 -34 l24 22 0 -21 c0 -19 5 -22 45 -22 l45 0 0 225 0 225 -50 0 -50 0
0 -74z m-18 -143 c13 -12 18 -30 18 -70 0 -60 -23 -93 -65 -93 -41 0 -65 33
-65 90 0 37 5 55 20 70 24 24 67 26 92 3z"/>
<path d="M1435 1586 c-62 -28 -95 -85 -95 -163 0 -116 85 -176 226 -158 59 7
70 18 60 59 -5 22 -9 23 -48 16 -71 -13 -138 9 -138 47 0 10 24 13 105 13
l105 0 0 49 c0 111 -112 182 -215 137z m111 -81 c8 -13 13 -29 9 -35 -8 -12
-112 -14 -119 -1 -3 5 4 20 15 35 27 35 72 35 95 1z"/>
<path d="M520 1425 l0 -155 55 0 55 0 0 155 0 155 -55 0 -55 0 0 -155z"/>
<path d="M680 1425 l0 -155 50 0 50 0 0 98 c0 110 10 135 55 135 45 0 55 -25
55 -135 l0 -98 50 0 50 0 0 110 c0 119 -10 155 -52 184 -34 24 -107 21 -135
-6 l-23 -21 0 21 c0 20 -5 22 -50 22 l-50 0 0 -155z"/>
</g>
</svg>
