<?xml version="1.0" standalone="no"?>
<!DOCTYPE svg PUBLIC "-//W3C//DTD SVG 20010904//EN"
 "http://www.w3.org/TR/2001/REC-SVG-20010904/DTD/svg10.dtd">
<svg version="1.0" xmlns="http://www.w3.org/2000/svg"
 width="360.000000pt" height="360.000000pt" viewBox="0 0 300.000000 300.000000"
 preserveAspectRatio="xMidYMid meet">
<metadata>
Created by potrace 1.10, written by Peter Selinger 2001-2011
</metadata>
<g transform="translate(0.000000,300.000000) scale(0.050000,-0.050000)"
fill="#ffffff" stroke="none">
<path d="M929 3292 c-329 -143 -212 -612 153 -612 141 0 223 60 326 238 129
225 207 269 319 181 105 -83 40 -239 -98 -239 -35 0 -87 18 -115 41 l-52 41
-40 -79 c-72 -140 146 -239 344 -156 325 136 223 613 -131 613 -160 0 -263
-80 -367 -284 -93 -185 -197 -229 -299 -127 -125 126 20 278 193 203 28 -12
118 95 118 140 0 55 -251 83 -351 40z"/>
<path d="M2925 3270 c-36 -15 -65 -38 -65 -49 0 -12 -8 -21 -18 -21 -10 0 -14
18 -8 40 10 36 1 40 -102 40 l-112 0 0 -280 0 -280 110 0 110 0 0 160 c0 178
34 240 130 240 36 0 50 11 50 39 0 21 9 44 20 51 91 56 -7 107 -115 60z"/>
<path d="M3156 3270 c-157 -88 -126 -288 48 -320 93 -18 129 -55 86 -90 -25
-21 -47 -19 -121 9 -50 20 -94 32 -98 28 -110 -126 -55 -185 173 -186 297 -2
391 293 114 361 -131 32 -139 98 -9 83 90 -10 188 74 141 121 -28 29 -281 24
-334 -6z"/>
<path d="M3701 3265 c-211 -108 -207 -431 7 -533 167 -79 452 4 452 131 0 47
-150 51 -209 6 -54 -41 -124 -36 -171 11 -71 71 -50 80 183 80 l222 0 -11 81
c-29 216 -267 329 -473 224z m227 -108 c100 -45 80 -77 -49 -77 -127 0 -147
18 -75 69 54 37 60 37 124 8z"/>
<path d="M4540 3286 c-16 -6 -50 -30 -75 -52 l-45 -41 0 44 c0 39 -11 43 -105
43 l-105 0 0 -280 0 -280 105 0 105 0 0 139 c0 165 27 235 98 251 47 11 142
125 142 171 0 20 -71 23 -120 5z"/>
<path d="M4713 3240 c-132 -116 -158 -268 -71 -413 83 -135 328 -171 403 -59
9 14 15 9 15 -13 0 -29 19 -35 109 -35 l109 0 0 280 0 280 -109 0 c-61 0 -109
-9 -109 -21 0 -11 -25 -7 -59 10 -99 51 -209 40 -288 -29z m316 -151 c78 -79
17 -209 -99 -209 -70 0 -130 56 -130 120 0 102 155 162 229 89z"/>
<path d="M2000 3125 c1 -312 59 -407 255 -421 253 -18 325 67 325 385 l0 191
-100 0 -100 0 0 -189 c0 -219 -32 -267 -133 -201 -49 32 -51 40 -44 212 l7
178 -105 0 -105 0 0 -155z"/>
</g>
</svg>
