 <svg version="1.0" xmlns="http://www.w3.org/2000/svg"  
 width="300.000000pt" height="300.000000pt" viewBox="0 0 450.000000 400.000000"
   preserveAspectRatio="xMidYMid meet">  
   
   <g transform="translate(0.000000,500.000000) scale(0.050000,-0.050000)" fill="#ffffff" stroke="none"> <path d="M4267 7823 c-365 -126 -593 -568 -477 -925 56 -173 59 -175 327 -175 128 0 247 -1 263 -2 17 -1 182 1 368 4 l339 5 35 57 c312 517 -281 1235 -855 1036z m442 -66 c337 -129 537 -604 381 -904 l-40 -77 -350 4 c-192 1 -368 3 -390 3 -22 0 -80 0 -130 0 -312 -1 -278 -10 -321 90 -220 513 329 1083 850 884z"/> <path d="M4258 7682 c-297 -148 -449 -509 -323 -762 l35 -70 517 -2 517 -1 20 51 c192 477 -324 1005 -766 784z m517 -121 c52 -43 57 -61 17 -61 -35 0 -52 -65 -38 -149 14 -87 -26 -206 -75 -221 -22 -7 -39 -20 -39 -29 0 -9 -31 -22 -69 -30 -83 -15 -111 -49 -53 -65 78 -20 47 -62 -53 -71 -105 -9 -171 19 -116 49 52 30 35 50 -52 64 -66 11 -92 6 -125 -24 -95 -85 -150 -60 -151 69 -1 64 83 112 137 78 10 -6 22 -4 25 4 13 30 214 166 303 205 66 29 93 55 103 95 30 119 105 154 186 86z"/> <path d="M4370 7099 c-29 -12 -12 -17 58 -18 103 -1 117 10 32 25 -28 5 -68 2 -90 -7z"/> <path d="M5131 6595 c-4 -14 -15 -52 -25 -85 -37 -124 -1 -841 45 -902 154 -206 542 -185 988 55 83 44 153 71 157 60 49 -149 175 -208 319 -150 88 36 101 36 181 8 79 -28 93 -27 180 7 52 20 117 34 144 31 297 -30 440 65 440 296 0 192 -116 277 -206 151 l-53 -74 65 -54 c102 -87 15 -168 -140 -129 -45 11 -48 20 -36 89 11 69 6 81 -61 140 -86 75 -107 73 -153 -19 -45 -91 -45 -90 24 -119 113 -47 76 -120 -60 -120 -123 0 -143 14 -128 92 27 144 -114 254 -200 156 -56 -64 -66 -108 -25 -108 36 0 93 -65 93 -107 0 -27 -21 -33 -118 -33 -137 0 -172 27 -152 119 15 70 -43 88 -92 29 -76 -92 -433 -208 -686 -222 -382 -22 -419 47 -431 807 -1 80 -52 140 -70 82z"/> <path d="M1608 6255 c-413 -446 -220 -798 455 -829 430 -20 1100 116 1402 285 64 36 95 24 96 -37 2 -139 222 -205 374 -111 66 41 72 41 125 10 69 -41 172 -42 246 -3 51 26 62 26 106 -3 226 -148 534 291 340 485 -87 87 -103 86 -149 -17 l-38 -85 71 -62 c99 -86 80 -132 -51 -124 -93 6 -95 8 -100 76 -12 154 -63 240 -143 240 -43 0 -121 -164 -84 -176 134 -45 116 -144 -25 -144 -112 1 -129 16 -126 112 5 170 -89 232 -176 118 l-54 -71 54 -63 c51 -61 51 -65 16 -91 -142 -103 -322 -20 -270 124 37 103 14 119 -85 61 -262 -153 -792 -275 -1232 -282 -758 -12 -1046 127 -768 371 44 39 76 92 92 150 33 125 3 151 -76 66z"/> <path d="M2583 6240 c-53 -72 -75 -74 -137 -16 l-46 43 -70 -67 c-86 -83 -86 -91 -5 -140 87 -53 117 -44 172 54 16 29 24 28 73 -11 74 -58 98 -55 158 22 l50 64 -53 56 c-67 70 -87 69 -142 -5z"/> <path d="M5734 5370 l-55 -67 -49 49 c-61 61 -72 60 -148 -10 -75 -70 -77 -88 -13 -130 71 -46 122 -40 165 20 l38 51 73 -42 c127 -75 241 47 137 147 -68 66 -79 64 -148 -18z"/> <path d="M510 5055 c-154 -30 -285 -222 -179 -263 46 -17 61 0 30 37 -88 106 124 190 334 133 107 -30 107 -44 -5 -98 -49 -24 -90 -53 -90 -64 0 -15 12 -15 39 0 38 20 40 12 45 -182 l6 -203 47 38 c43 35 47 54 50 248 l3 209 68 0 69 0 -3 -256 c-3 -298 -1 -294 -110 -294 -286 0 -433 372 -210 529 35 24 38 31 12 31 -50 0 -158 -100 -189 -173 -118 -283 135 -533 452 -447 90 24 279 179 219 179 -17 1 -48 -17 -68 -39 -61 -67 -67 -49 -64 217 l3 257 56 32 c56 33 90 86 68 108 -7 6 -26 0 -43 -14 -31 -25 -91 -23 -360 17 -55 8 -136 7 -180 -2z"/> <path d="M2750 5048 c-214 -115 -137 -256 179 -329 331 -76 405 -180 217 -308 l-69 -46 -98 41 c-111 47 -111 47 -64 109 44 56 182 30 200 -37 15 -58 54 -35 61 36 5 50 -3 64 -50 81 -31 12 -74 28 -96 37 -22 8 -53 16 -70 18 -167 11 -360 98 -360 161 0 43 -35 35 -50 -11 -31 -97 37 -158 222 -201 159 -37 153 -33 118 -86 -26 -40 -53 -49 -158 -58 -236 -19 -372 -117 -372 -268 l0 -84 98 4 c111 5 204 64 283 181 57 84 60 85 172 31 l85 -42 86 52 c112 67 141 91 182 150 70 102 14 245 -106 271 -33 7 -60 17 -60 22 0 17 131 127 165 139 19 6 35 24 35 38 0 49 -79 9 -158 -81 l-77 -88 -106 20 c-224 43 -336 152 -206 201 71 27 144 9 209 -53 l52 -50 93 56 c50 31 92 63 92 71 1 22 -55 18 -69 -5 -8 -13 -33 -9 -68 9 -91 47 -243 56 -312 19z m5 -693 c-13 -40 -211 -193 -267 -207 -125 -32 -112 103 17 181 93 55 266 73 250 26z"/> <path d="M6060 5056 c0 -74 114 -102 359 -88 264 16 289 6 277 -112 -11 -121 -236 -108 -236 14 0 39 -9 70 -20 70 -12 0 -20 -100 -20 -260 l0 -260 -115 0 c-162 -1 -274 -55 -304 -147 -50 -151 95 -249 324 -220 142 18 115 47 -44 47 -170 0 -257 54 -234 146 28 111 218 144 372 65 54 -28 66 -27 165 19 58 27 136 50 173 50 53 0 65 7 55 32 -7 17 -12 148 -12 291 0 364 2 363 -386 354 -156 -4 -300 1 -319 10 -25 12 -35 9 -35 -11z m640 -375 l0 -74 -120 2 -120 1 0 70 0 70 120 2 120 2 0 -73z m-4 -186 c8 -95 -54 -132 -171 -103 -71 17 -75 22 -68 88 10 99 15 103 130 96 l103 -6 6 -75z"/> <path d="M8011 5008 c-20 -30 -46 -47 -62 -40 -24 9 -29 -37 -29 -286 0 -246 -5 -300 -30 -309 -16 -7 -30 -22 -30 -34 0 -12 10 -15 22 -8 12 8 43 2 70 -12 39 -21 57 -21 98 1 60 32 63 52 10 66 -53 14 -60 460 -10 580 35 86 8 115 -39 42z"/> <path d="M1311 4996 c-29 -41 -32 -42 -56 -10 -21 29 -24 -20 -18 -268 7 -264 3 -306 -25 -322 -46 -26 -40 -43 27 -72 61 -28 161 11 161 62 0 11 -6 15 -13 8 -30 -30 -67 36 -67 118 0 77 7 91 62 119 106 55 122 32 111 -156 -6 -91 -10 -187 -8 -215 1 -27 2 -84 2 -125 1 -85 55 -106 92 -36 29 54 27 67 -20 118 -52 55 -43 111 18 120 34 4 43 15 33 40 -39 99 -35 239 7 262 46 24 60 71 18 55 -14 -5 -48 5 -77 21 -49 28 -58 27 -130 -22 -42 -29 -85 -53 -96 -53 -25 0 -1 319 26 346 12 12 22 29 22 38 0 31 -38 15 -69 -28z"/> <path d="M3475 4933 c-49 -39 -43 -67 17 -82 58 -14 165 41 135 69 -33 33 -117 40 -152 13z"/> <path d="M7545 4921 c-59 -49 -57 -55 20 -66 40 -6 86 2 119 21 l55 32 -62 26 c-77 33 -78 32 -132 -13z"/> <path d="M5504 4916 c-13 -13 -24 -57 -24 -98 0 -57 -9 -76 -40 -84 -22 -6 -40 -20 -40 -32 0 -12 18 -22 40 -22 36 0 40 -13 40 -142 0 -125 -5 -143 -40 -152 -22 -6 -40 -24 -40 -40 0 -15 10 -22 21 -15 12 7 46 2 77 -10 47 -20 67 -17 129 20 83 49 94 69 29 52 -72 -19 -96 20 -96 159 0 123 2 128 50 128 28 0 50 4 50 8 0 5 5 23 12 40 10 26 1 30 -50 19 l-62 -12 0 103 c0 103 -13 121 -56 78z"/> <path d="M6281 4867 c-22 -29 -41 -67 -41 -85 0 -18 -20 -41 -45 -52 -29 -13 -47 -41 -52 -80 -6 -59 -6 -59 34 -23 60 55 87 25 72 -79 -14 -91 19 -122 66 -63 23 29 44 435 22 435 -8 0 -33 -24 -56 -53z"/> <path d="M1840 4700 c-56 -23 -87 -47 -81 -63 26 -82 22 -213 -7 -242 -38 -38 -42 -62 -7 -49 14 5 50 -6 80 -23 52 -30 61 -29 170 26 63 31 103 61 88 66 -15 5 -48 -2 -73 -15 -61 -33 -155 -10 -146 34 3 18 48 56 99 84 128 71 128 70 67 151 -62 80 -66 81 -190 31z m99 -157 c-61 -49 -79 -39 -79 45 0 90 20 102 77 44 l50 -50 -48 -39z"/> <path d="M3455 4705 c-62 -39 -72 -70 -20 -61 30 5 36 -13 40 -124 9 -231 38 -265 159 -186 l53 35 -49 11 c-69 17 -84 244 -19 280 54 28 52 56 -4 55 -25 -1 -58 4 -75 11 -16 7 -55 -2 -85 -21z"/> <path d="M3800 4706 c0 -19 25 -60 55 -93 35 -37 46 -61 31 -67 -125 -45 -170 -187 -74 -231 45 -20 65 -17 135 22 l83 45 27 -41 c34 -50 59 -51 122 -8 l47 34 -43 16 c-64 24 -63 223 2 280 l45 40 -49 -11 c-30 -6 -63 2 -83 20 -30 27 -40 26 -101 -11 -83 -51 -90 -51 -103 -1 -13 50 -94 55 -94 6z m240 -178 c0 -97 -5 -110 -56 -136 -100 -52 -171 40 -88 115 28 25 42 27 60 9 43 -43 25 10 -19 57 l-43 46 48 18 c79 29 98 8 98 -109z"/> <path d="M4458 4708 c-27 -15 -70 -27 -97 -27 -38 -1 -44 -6 -25 -25 31 -31 31 -101 1 -131 -30 -30 24 -55 83 -39 71 18 62 -20 -20 -86 -88 -71 -113 -139 -37 -99 24 14 75 18 121 11 54 -9 91 -4 121 18 24 16 64 30 88 30 50 0 79 30 47 50 -28 17 -25 97 4 126 19 19 5 24 -60 24 -102 0 -105 19 -14 89 39 29 70 59 70 67 0 26 -234 19 -282 -8z m126 -60 l64 13 -58 -61 c-88 -92 -183 -55 -141 53 9 26 17 27 41 7 19 -15 55 -20 94 -12z m56 -194 l0 -66 -111 1 -111 1 71 65 c95 87 151 87 151 -1z"/> <path d="M4900 4696 c0 -24 19 -64 43 -89 l43 -46 -53 -42 c-161 -126 -60 -281 115 -178 l74 44 30 -42 c35 -50 63 -53 117 -12 39 29 39 30 -5 60 -70 49 -63 211 11 269 l55 43 -49 -11 c-30 -6 -63 2 -83 20 -30 27 -41 26 -110 -11 -77 -41 -77 -41 -92 -1 -21 56 -96 53 -96 -4z m216 -60 c53 -53 29 -204 -38 -244 -61 -36 -63 -36 -105 6 -54 54 -24 114 55 108 59 -4 44 54 -23 92 -31 17 -30 21 15 39 66 27 68 27 96 -1z"/> <path d="M6987 4709 c-7 -19 10 -55 45 -92 55 -56 56 -61 21 -81 -110 -61 -141 -144 -76 -203 48 -43 101 -41 163 7 64 50 94 50 110 0 15 -49 46 -51 109 -7 l47 34 -43 16 c-62 23 -64 234 -3 272 53 33 54 74 1 46 -29 -16 -46 -13 -68 9 -37 37 -51 37 -91 2 -61 -53 -122 -59 -122 -13 0 50 -75 58 -93 10z m229 -73 c48 -48 30 -207 -27 -233 -72 -32 -128 -29 -143 10 -17 46 21 97 72 95 54 -2 53 20 -1 71 l-43 40 48 19 c64 26 66 26 94 -2z"/> <path d="M7534 4708 c-55 -30 -58 -76 -3 -55 24 9 29 -16 29 -147 0 -205 38 -248 154 -172 l53 35 -49 11 c-69 17 -84 244 -19 280 52 27 54 67 3 51 -21 -7 -44 -3 -51 8 -18 28 -50 25 -117 -11z"/> <path d="M8215 4718 c-43 -25 -46 -58 -5 -58 24 0 30 -28 30 -135 1 -146 6 -161 76 -208 56 -39 220 -15 259 37 14 19 25 90 25 160 0 95 8 130 30 139 44 16 37 34 -24 62 -73 34 -77 33 -175 -34 l-86 -60 -12 60 c-13 62 -53 75 -118 37z m297 -110 c32 -125 -16 -258 -92 -258 l-70 0 -6 120 c-7 155 135 272 168 138z"/> <path d="M8250 4239 c-29 -89 61 -121 217 -77 57 16 84 15 100 -2 39 -39 -43 -80 -161 -80 -58 0 -106 -9 -106 -20 0 -46 239 -22 291 29 108 108 47 160 -163 140 -138 -13 -153 -11 -142 18 7 18 5 33 -5 33 -10 0 -24 -18 -31 -41z"/> <path d="M7414 4147 c-6 -62 -21 -122 -33 -134 -32 -32 -25 -53 19 -53 36 0 40 13 40 150 0 178 -10 193 -26 37z"/> 
 <path d="M6964 4050 c-26 -29 -55 -44 -73 -37 -20 7 -31 0 -31 -21 0 -81 123 -28 145 63 14 56 12 56 -41 -5z"/> </g> </svg> 