<?xml version="1.0" standalone="no"?>
<!DOCTYPE svg PUBLIC "-//W3C//DTD SVG 20010904//EN"
 "http://www.w3.org/TR/2001/REC-SVG-20010904/DTD/svg10.dtd">
<svg version="1.0" xmlns="http://www.w3.org/2000/svg"
 width="100%" height="100%" viewBox="0 0 300 260" preserveAspectRatio="xMidYMid meet"> 
<metadata>
Created by potrace 1.10, written by Peter Selinger 2001-2011
</metadata>
<g transform="translate(0.000000,280.000000) scale(0.050000,-0.050000)"
fill="#ffffff" stroke="none">
<path d="M960 3246 c-250 -91 -392 -658 -210 -840 158 -158 343 -71 519 243
115 205 88 205 212 -1 281 -464 640 -415 592 82 -45 453 -341 674 -591 440
l-95 -89 -59 61 c-100 106 -248 147 -368 104z m852 -177 c115 -122 177 -478
97 -558 -86 -85 -138 -42 -339 285 -114 184 -115 186 -78 230 117 140 217 153
320 43z m-597 -37 l93 -87 -109 -167 c-236 -362 -379 -406 -379 -119 0 370
200 558 395 373z"/>
<path d="M2380 2790 l0 -450 70 0 69 0 6 345 5 345 126 -236 127 -236 73 6
c72 6 77 12 194 230 66 124 125 225 132 225 7 1 8 -153 2 -340 l-10 -342 74 7
74 6 4 446 4 446 -88 -6 -89 -6 -138 -250 c-76 -137 -144 -256 -152 -264 -7
-8 -80 107 -160 255 l-147 269 -88 0 -88 0 0 -450z"/>
<path d="M4267 3105 l3 -95 -65 5 c-60 5 -65 1 -65 -55 0 -55 6 -60 70 -60
l70 0 0 -211 c0 -296 33 -347 225 -348 115 -1 115 -1 115 59 0 57 -5 60 -79
60 -116 0 -141 47 -141 264 l0 176 111 0 c110 0 112 1 105 55 -6 52 -12 55
-106 55 l-100 0 0 95 0 95 -73 0 -73 0 3 -95z"/>
<path d="M3649 3001 c-313 -127 -216 -638 126 -657 174 -10 321 49 285 115
-31 60 -55 66 -111 28 -90 -59 -225 -45 -292 30 -97 109 -85 116 188 114 l245
-1 -5 80 c-13 238 -222 377 -436 291z m220 -113 c37 -15 100 -125 82 -144 -27
-26 -351 -20 -351 7 0 97 160 179 269 137z"/>
<path d="M4824 2980 c-187 -114 -187 -486 0 -600 90 -54 240 -54 318 1 l58 42
0 -42 c0 -34 13 -41 70 -41 l70 0 0 340 0 340 -70 0 c-57 0 -70 -7 -70 -41 l0
-42 -53 42 c-71 56 -232 56 -323 1z m323 -129 c137 -127 45 -391 -136 -391
-127 0 -181 67 -181 223 0 199 181 294 317 168z"/>
</g>
</svg>
