<svg version="1.1" id="Layer_1" xmlns="http://www.w3.org/2000/svg" xmlns:xlink="http://www.w3.org/1999/xlink" x="0px" y="0px"
	 width="100%" viewBox="0 0 646 91" enable-background="new 0 0 646 91" xml:space="preserve">
<path fill="#47704C" opacity="1.000000" stroke="none" 
	d="
M490.000000,92.000000 
	C326.721893,92.000000 163.943787,92.000000 1.082838,92.000000 
	C1.082838,61.732380 1.082838,31.464458 1.082838,1.098269 
	C216.333313,1.098269 431.666656,1.098269 646.973328,1.098269 
	C646.973328,31.389477 646.973328,61.694752 646.973328,92.000000 
	C594.797791,92.000000 542.648865,92.000000 490.000000,92.000000 
M191.757217,73.697693 
	C189.160339,80.824600 190.277222,86.024147 195.786911,88.713509 
	C203.284760,92.373329 210.971237,91.849052 218.241425,87.798355 
	C225.109924,83.971466 228.233948,77.918144 227.989975,70.075760 
	C227.810318,64.300041 225.235580,61.105511 219.513367,60.177814 
	C215.759003,59.569149 211.917847,59.497932 208.161606,58.897816 
	C206.573624,58.644112 205.103928,57.649914 202.603348,56.570496 
	C204.501068,55.602737 204.905853,55.253494 205.351517,55.189701 
	C221.183533,52.923439 221.947464,52.117935 224.145065,36.452061 
	C224.311829,35.263325 225.433868,33.474590 226.404114,33.254787 
	C231.674011,32.060936 229.959671,28.918455 229.041870,25.061541 
	C224.116119,28.403500 220.050430,27.735880 214.998444,25.477882 
	C204.949005,20.986284 189.605164,27.850101 192.219635,43.607307 
	C192.822617,47.241447 195.348404,50.556553 197.110184,54.273396 
	C193.008652,57.701195 192.081100,62.290180 193.708237,67.859650 
	C194.135605,69.322533 192.634964,71.348694 191.940704,72.351494 
	C188.661270,67.904083 189.044067,62.765903 188.948685,57.632252 
	C188.794525,49.334930 188.433899,41.036037 187.918243,32.752884 
	C187.612656,27.844206 184.748642,24.998581 179.839752,25.142536 
	C175.812729,25.260628 171.813751,26.335867 167.419754,27.048927 
	C164.798950,23.612631 156.024857,24.323689 147.951294,29.612398 
	C154.004501,36.846096 151.692871,45.567486 151.939346,53.887733 
	C152.061417,58.009186 151.802521,62.189114 151.174774,66.259109 
	C150.964752,67.620728 148.611267,69.937897 148.041153,69.719582 
	C146.243088,69.031097 144.487030,67.579765 143.382004,65.966560 
	C142.658279,64.910027 143.021027,63.062088 143.015991,61.568207 
	C142.986298,52.739658 142.926163,43.910374 143.010986,35.082626 
	C143.056900,30.305166 140.925247,26.387619 136.528900,25.589308 
	C129.912003,24.387783 122.792206,23.425426 117.016640,28.492577 
	C114.988564,30.271885 113.152855,32.573311 112.023575,35.005161 
	C110.204453,38.922562 111.726707,42.234695 115.267418,43.519527 
	C118.777885,44.793388 121.735123,43.139988 123.088234,38.785183 
	C123.889297,36.207088 124.196541,33.475555 124.860138,30.137445 
	C129.826981,33.810009 129.330704,38.523304 128.695862,42.712772 
	C128.438675,44.410122 125.706993,46.022545 123.782593,47.109173 
	C120.905121,48.733967 117.578079,49.576813 114.742470,51.258480 
	C109.179649,54.557518 107.353905,63.188824 110.697273,69.001343 
	C113.874802,74.525551 119.640106,75.579437 126.268929,71.822144 
	C127.258125,71.261459 128.185318,70.591370 129.248657,69.902237 
	C133.213654,73.492363 137.656540,74.775162 142.746170,73.599350 
	C144.360001,73.226532 146.005936,72.726196 147.635849,72.731033 
	C162.455109,72.774994 177.274063,72.917885 191.757217,73.697693 
M235.373489,73.591499 
	C239.849670,72.845993 244.325851,72.100487 250.388535,71.090752 
	C255.331787,74.450645 255.365692,74.445763 263.861298,73.059746 
	C264.998230,72.874252 266.167877,72.816208 267.321991,72.820015 
	C280.476685,72.863396 293.631256,72.951050 306.785950,72.963066 
	C308.330902,72.964485 309.876221,72.584259 310.169830,72.545631 
	C309.382263,66.965912 308.320831,62.087395 308.087250,57.169567 
	C307.739960,49.857533 308.135712,42.513084 307.921265,35.191040 
	C307.717743,28.241743 304.120575,24.753433 297.275696,25.106274 
	C293.740417,25.288513 290.257874,26.494484 286.694366,27.250023 
	C285.981384,26.502901 284.822479,24.473574 284.052399,24.611708 
	C278.350494,25.634497 272.725983,27.088583 267.055878,28.412075 
	C268.747650,32.217758 270.815033,34.823383 270.936798,37.516953 
	C271.339203,46.419197 271.209503,55.359741 270.867249,64.269569 
	C270.797241,66.091591 269.051849,69.240730 267.847412,69.355759 
	C264.757324,69.650864 262.866028,67.684196 262.962250,64.028542 
	C263.154999,56.705757 263.004242,49.374012 263.000488,42.045963 
	C262.992737,26.925924 259.542358,23.734390 244.623642,25.054590 
	C244.292007,25.083941 243.956329,25.084505 243.628357,25.135782 
	C237.875854,26.035200 231.713745,31.286167 231.110474,35.890343 
	C230.631866,39.543156 231.510117,42.634563 235.456635,43.759605 
	C238.743073,44.696468 242.025665,42.118130 242.919586,38.191143 
	C243.484436,35.709862 244.039383,33.226326 244.687836,30.348442 
	C250.493256,36.020386 248.974457,45.039455 242.506210,47.699604 
	C239.899368,48.771713 237.195419,49.735691 234.811325,51.198238 
	C226.638702,56.211849 226.624969,67.888199 235.373489,73.591499 
M424.999390,24.587240 
	C424.410706,19.984676 423.822021,15.382112 423.233307,10.779548 
	C419.513458,11.516815 417.346924,11.583420 415.317993,11.087322 
	C411.945343,10.262672 408.379089,9.590650 405.390076,7.950787 
	C394.621979,2.043004 384.318085,3.621613 373.684479,8.448232 
	C369.163696,10.500225 363.980713,11.093249 357.269867,12.819843 
	C356.931213,17.325308 355.652313,23.583416 356.234070,29.663490 
	C356.801727,35.596237 358.755005,41.559570 361.046722,47.119221 
	C363.433167,52.908600 367.651825,57.199806 375.497650,55.801556 
	C371.875763,57.553139 369.133820,58.879177 366.162415,60.316185 
	C365.362122,59.615803 364.390961,58.719471 363.369354,57.884880 
	C362.353271,57.054775 361.286469,56.286728 359.625977,55.022511 
	C359.918427,58.189747 360.110168,60.266022 360.324768,62.590202 
	C358.398132,62.590202 356.855591,62.590202 355.248535,62.590202 
	C356.718842,67.503731 363.128143,72.421944 367.463013,71.836647 
	C368.747498,71.663223 369.826843,70.297806 371.126068,69.823753 
	C372.739685,69.234993 375.095856,68.098373 376.076660,68.760544 
	C385.210693,74.927200 394.209320,75.311821 403.384003,69.043343 
	C403.643860,68.865814 404.046112,68.909225 404.333954,68.758179 
	C406.504120,67.619339 407.930054,67.834648 409.874084,69.871796 
	C411.222687,71.284996 414.797882,72.190895 416.433197,71.391113 
	C420.375092,69.463249 423.762146,66.400955 427.372986,63.796162 
	C427.100555,63.398228 426.828156,63.000290 426.555756,62.602356 
	C424.848389,62.602356 423.141022,62.602356 421.141327,62.602356 
	C421.315338,60.163795 421.467010,58.038303 421.618652,55.912811 
	C421.269196,55.744427 420.919769,55.576046 420.570312,55.407665 
	C419.149139,57.558960 417.727997,59.710258 416.306854,61.861553 
	C415.878235,61.370098 415.449646,60.878643 415.021057,60.387188 
	C412.133301,58.985241 409.245544,57.583290 407.578125,56.773792 
	C410.009735,55.555588 413.607697,54.670361 415.892517,52.439953 
	C423.376556,45.134186 425.579773,35.739208 424.999390,24.587240 
M555.990417,8.847961 
	C556.448364,4.047468 554.539551,2.347038 549.815491,3.935724 
	C547.942932,4.565471 545.916016,4.721122 543.981567,5.184993 
	C536.221924,7.045741 536.225159,7.059116 539.935120,14.023819 
	C542.928101,19.642550 540.762634,23.860050 534.854553,25.227316 
	C531.763367,25.942703 528.533569,27.476273 526.139709,29.538158 
	C516.726135,37.646202 516.841431,48.750980 518.536377,59.521103 
	C520.612366,72.712776 528.648193,76.507607 540.710999,71.150063 
	C544.926514,74.839157 553.298096,75.025085 558.274292,72.214149 
	C557.458069,67.736565 556.157471,63.746380 556.100037,59.738380 
	C555.861328,43.086906 555.997498,26.430056 555.990417,8.847961 
M468.939880,67.211029 
	C468.678589,66.611168 468.201874,66.016441 468.187408,65.410690 
	C467.783173,48.469143 467.338287,31.527557 467.130249,14.583152 
	C467.085693,10.956729 470.768372,9.441978 473.353760,12.268633 
	C475.801971,14.945316 477.048279,18.717424 478.845062,21.995773 
	C479.558167,23.296963 480.330261,24.565844 481.075531,25.849434 
	C481.669800,25.693546 482.264099,25.537659 482.858398,25.381769 
	C483.746490,18.471315 484.634613,11.560860 485.571320,4.272138 
	C483.313049,4.272138 481.965820,4.050073 480.716644,4.306254 
	C467.221802,7.073770 453.740295,6.994104 440.256775,4.281287 
	C436.720764,3.569861 434.860229,4.664577 434.985718,8.591438 
	C435.118530,12.747791 434.906372,16.914087 434.941956,21.075211 
	C434.954712,22.565149 435.250763,24.052664 435.417542,25.541269 
	C436.770538,24.371578 438.342987,23.375273 439.431976,21.997002 
	C441.877380,18.902018 443.668549,15.173074 446.500641,12.533162 
	C449.416534,9.815135 451.898071,11.090623 451.922211,14.993423 
	C452.020081,30.809172 452.016205,46.626511 451.887817,62.441944 
	C451.859528,65.926979 450.573364,68.945740 446.640778,69.993744 
	C445.875946,70.197548 445.257233,70.949738 444.355713,71.605728 
	C449.986877,73.962646 471.673553,73.460640 474.409424,71.000481 
	C472.729462,69.916122 471.087982,68.856606 468.939880,67.211029 
M37.469826,73.000000 
	C41.316051,73.000000 45.162273,73.000000 49.008499,73.000000 
	C49.333984,72.475220 49.659470,71.950447 49.984955,71.425667 
	C39.593403,68.230385 42.294701,60.111610 42.029148,53.164501 
	C41.870304,49.008892 41.997963,44.842255 42.000431,40.680573 
	C42.005363,32.357243 41.934792,24.032436 42.092484,15.711974 
	C42.120197,14.249369 42.847321,11.798126 43.710560,11.574321 
	C45.227283,11.181093 47.392204,11.735229 48.740093,12.675040 
	C50.121292,13.638077 51.072788,15.437785 51.805599,17.055546 
	C52.758854,19.159979 53.214821,21.485140 54.086678,23.633383 
	C54.400703,24.407135 55.299351,24.943624 55.931202,25.588388 
	C56.588661,24.787210 57.688911,24.056940 57.830441,23.173143 
	C58.641720,18.106968 59.280956,13.010717 59.865978,7.911754 
	C60.231632,4.724730 58.553471,3.732590 55.607960,4.313250 
	C41.937408,7.008180 28.255314,6.948622 14.583018,4.365371 
	C11.706210,3.821826 10.137920,4.530666 10.004546,7.750916 
	C9.874598,10.888447 9.295947,14.005744 9.118976,17.143467 
	C8.962004,19.926571 9.086057,22.725525 9.086057,25.517481 
	C9.758315,25.647478 10.430573,25.777475 11.102831,25.907471 
	C12.096814,24.534554 13.135099,23.191200 14.075201,21.782330 
	C15.824493,19.160782 17.185925,16.176376 19.349926,13.972549 
	C20.768688,12.527678 23.313597,12.188601 25.354143,11.354280 
	C25.900440,13.140038 26.901001,14.920950 26.920113,16.712332 
	C27.055063,29.362356 27.430372,42.036774 26.795370,54.656425 
	C26.488489,60.755226 28.333975,68.556870 18.730349,71.057106 
	C19.026133,71.671249 19.321915,72.285393 19.617699,72.899536 
	C25.238605,72.933022 30.859514,72.966507 37.469826,73.000000 
M504.751007,26.472158 
	C493.681854,21.570824 483.404968,23.861582 478.452148,33.656128 
	C472.999908,44.438347 472.815186,55.921326 479.200470,66.571861 
	C484.588257,75.558556 498.704193,76.370361 506.919922,69.826027 
	C516.813660,61.945061 518.100952,35.215935 504.751007,26.472158 
M333.312012,25.003304 
	C326.217377,24.196016 319.785858,25.758011 315.833466,31.999840 
	C314.305664,34.412579 314.138763,38.164783 314.590637,41.117138 
	C314.770233,42.290558 319.006714,44.216537 320.168243,43.575363 
	C322.464447,42.307854 324.300140,39.695698 325.570374,37.247345 
	C326.523315,35.410484 326.294281,32.960384 326.660950,30.274189 
	C332.414307,33.635258 331.152710,38.553486 330.686951,42.699745 
	C330.501282,44.352432 327.713043,45.978203 325.807892,47.107048 
	C323.258942,48.617367 320.282928,49.405556 317.729095,50.909348 
	C312.875641,53.767254 310.261383,59.487415 311.311920,64.320374 
	C313.241425,73.197105 320.969482,78.204475 330.870972,70.207420 
	C339.388794,75.077438 345.939209,75.217735 348.371490,71.919220 
	C347.402069,68.070000 346.203979,65.310654 346.098511,62.510174 
	C345.810669,54.865078 346.148987,47.197983 345.933685,39.548199 
	C345.644684,29.280474 342.372192,25.390806 333.312012,25.003304 
M594.000000,58.419823 
	C593.994324,50.921635 594.057373,43.422520 593.956055,35.925621 
	C593.899536,31.739460 592.820190,27.220741 588.465027,26.287094 
	C583.426941,25.207047 577.902527,25.085360 572.815491,25.922495 
	C567.984802,26.717445 564.145630,30.053896 562.518433,35.143784 
	C561.355286,38.782288 562.017822,42.074677 565.719482,43.486507 
	C569.373291,44.880108 572.309631,43.112400 573.609863,39.448921 
	C574.582642,36.708000 575.058899,33.790863 575.885742,30.424736 
	C580.085754,32.589462 579.138306,36.568413 579.859253,39.601589 
	C580.783386,43.489998 579.291748,45.881985 575.043762,47.293568 
	C570.740967,48.723358 566.422668,50.952782 562.960022,53.847374 
	C558.764404,57.354683 559.058472,66.283409 562.654785,70.934174 
	C565.164185,74.179306 571.075256,75.518738 574.924072,72.802490 
	C578.436707,70.323540 580.967285,70.479652 584.536560,72.612244 
	C589.511597,75.584679 594.923523,74.311287 597.702881,70.139435 
	C592.677856,67.908127 594.214294,63.367996 594.000000,58.419823 
M623.245361,46.497158 
	C622.706360,48.090477 622.167358,49.683796 621.628357,51.277119 
	C619.486389,46.785583 618.554016,42.434685 617.162048,38.236198 
	C615.659790,33.705231 615.628235,29.661526 619.388428,25.816738 
	C611.088623,25.816738 602.788818,25.816738 594.534546,25.816738 
	C597.175964,30.273994 600.157715,34.060272 601.817993,38.357159 
	C605.705627,48.418751 608.990723,58.714615 612.459961,68.935921 
	C614.815430,75.875740 614.742432,75.906723 607.731750,77.126953 
	C606.433594,77.352905 605.123596,77.731415 603.926392,78.275543 
	C600.378662,79.887878 600.390320,83.322403 601.350403,85.988152 
	C601.972473,87.715576 604.690979,89.612938 606.610352,89.775124 
	C612.415710,90.265663 615.233459,85.929672 616.944702,81.307091 
	C620.806030,70.876335 624.363403,60.328396 627.831421,49.758244 
	C630.449402,41.778526 631.821777,33.261139 638.501831,27.205948 
	C638.689148,27.036154 638.364319,26.301350 638.253235,25.692444 
	C633.019226,25.692444 627.852112,25.692444 622.587158,25.692444 
	C625.981995,36.328041 625.987183,36.329334 624.824829,40.986713 
	C624.423035,42.596920 623.988037,44.198853 623.245361,46.497158 
M104.977859,7.952342 
	C104.821808,5.616542 105.016640,2.817515 101.389091,3.477940 
	C97.157982,4.248244 92.946762,5.198233 88.801094,6.339685 
	C86.490616,6.975846 85.898460,8.271065 87.219353,10.842606 
	C88.659660,13.646608 89.799789,16.940424 89.876198,20.050070 
	C90.174210,32.179733 90.029015,44.321129 89.986229,56.457935 
	C89.967384,61.803810 91.064690,67.415588 85.317810,72.344749 
	C93.960503,72.344749 101.161354,72.344749 107.136589,72.344749 
	C106.369942,67.282242 105.160751,62.767334 105.094200,58.235645 
	C104.852562,41.779434 104.993721,25.317600 104.977859,7.952342 
M82.172638,31.553972 
	C76.073090,22.489950 65.148796,21.239164 57.570591,28.995731 
	C48.508694,38.270905 47.312901,49.397011 51.013557,61.269283 
	C54.109493,71.201500 60.378269,75.070221 70.619247,73.931435 
	C76.724663,73.252518 83.384743,66.632797 82.943336,60.376514 
	C77.988358,65.223579 72.722267,66.650047 68.120995,61.345234 
	C64.530426,57.205650 62.397892,52.229809 63.468639,46.000011 
	C66.870789,46.000011 69.845070,46.000256 72.819351,45.999966 
	C86.906273,45.998596 86.967712,45.911549 82.172638,31.553972 
M476.892334,84.085609 
	C471.712402,85.564194 475.824188,88.276588 475.649017,90.387428 
	C480.832123,91.496658 482.766327,89.559898 481.981995,84.389221 
	C480.548218,84.273911 479.107849,84.158073 476.892334,84.085609 
M456.080231,88.009224 
	C457.494446,89.149048 458.908661,90.288872 460.322906,91.428696 
	C461.008270,90.887932 461.693665,90.347168 462.379059,89.806404 
	C461.549744,87.948334 460.720459,86.090256 459.891144,84.232193 
	C458.619934,85.242409 457.348694,86.252625 456.080231,88.009224 
M385.812042,88.290558 
	C384.973541,86.940971 384.135071,85.591385 383.296570,84.241798 
	C382.292358,84.904922 380.674103,85.397873 380.431824,86.272156 
	C380.091583,87.499901 380.773712,89.010986 381.018555,90.400879 
	C382.560516,89.946358 384.102478,89.491837 385.812042,88.290558 
M299.032928,90.636726 
	C299.496307,88.937988 300.136078,87.251595 300.256683,85.528862 
	C300.277771,85.227318 297.895782,84.206123 297.026550,84.546448 
	C296.131592,84.896851 294.998840,86.781731 295.271576,87.503242 
	C295.759430,88.793854 297.224121,89.715233 299.032928,90.636726 
M414.526154,85.170921 
	C414.329681,86.764160 413.766815,88.450317 414.134583,89.900467 
	C414.264099,90.411133 416.834045,90.793976 417.982727,90.381065 
	C418.738831,90.109291 419.613617,87.661125 419.276550,87.314651 
	C418.168854,86.175941 416.532471,85.551521 414.526154,85.170921 
M333.665894,85.999146 
	C332.176239,85.602959 330.686584,85.206779 329.196930,84.810593 
	C328.899841,86.162537 328.154114,87.628723 328.459351,88.827286 
	C328.671967,89.662247 330.326263,90.130074 331.336578,90.761894 
	C332.165161,89.423592 332.993774,88.085297 333.665894,85.999146 
M400.856201,86.878868 
	C399.711456,86.114464 398.566681,85.350060 397.421906,84.585670 
	C396.687042,85.770912 395.486816,86.917160 395.383026,88.155312 
	C395.315338,88.962784 396.840485,89.903763 397.652100,90.784927 
	C398.733704,89.737030 399.815308,88.689125 400.856201,86.878868 
M426.042542,84.370644 
	C422.049530,84.154121 422.949554,87.086792 423.406738,89.089188 
	C423.581268,89.853630 425.631958,90.189720 426.827606,90.721016 
	C427.109619,89.075050 427.452240,87.435295 427.622192,85.777855 
	C427.655945,85.448914 427.027466,85.052071 426.042542,84.370644 
M305.085205,87.545563 
	C305.978790,88.608147 306.872406,89.670738 307.765991,90.733322 
	C308.460876,89.984924 309.806549,89.146286 309.717865,88.506569 
	C309.521210,87.088356 308.604675,85.769966 307.981689,84.410851 
	C307.024872,85.197182 306.068054,85.983505 305.085205,87.545563 
M342.691376,86.687912 
	C341.703369,85.939873 340.715363,85.191833 339.727356,84.443802 
	C339.239197,86.048805 338.470825,87.646919 338.431091,89.262939 
	C338.418945,89.757080 340.407745,90.300423 341.480194,90.821228 
	C341.853821,89.649895 342.227417,88.478561 342.691376,86.687912 
M436.624603,85.130508 
	C431.649109,83.621552 433.388672,87.877686 431.796356,90.355583 
	C434.146637,90.463188 435.787201,90.538300 438.188263,90.648224 
	C437.628479,88.500557 437.272827,87.136024 436.624603,85.130508 
M466.198792,88.990730 
	C467.314972,89.687111 468.431122,90.383484 469.547302,91.079865 
	C470.024872,90.731133 470.502472,90.382401 470.980072,90.033669 
	C470.281494,88.100250 469.582916,86.166832 468.884338,84.233406 
	C467.958344,85.567451 467.032318,86.901497 466.198792,88.990730 
M489.477448,84.377632 
	C484.016388,84.799294 486.899261,88.124786 486.889801,90.890862 
	C492.153687,90.505623 491.277191,87.676552 489.477448,84.377632 
M352.696075,89.148186 
	C352.194580,87.520599 351.693054,85.893005 351.191559,84.265419 
	C350.667572,84.180267 350.143585,84.095108 349.619598,84.009949 
	C348.721130,85.921600 347.822662,87.833252 346.318939,91.032661 
	C349.330444,90.444321 350.946381,90.128616 352.696075,89.148186 
M375.016357,88.389336 
	C375.774017,84.020325 375.774017,84.020325 371.259521,85.088280 
	C371.572235,86.467789 371.743256,87.920448 372.313232,89.194626 
	C372.439270,89.476379 373.976593,89.126801 375.016357,88.389336 
M408.346161,88.448112 
	C407.907349,87.119339 407.468567,85.790558 407.029785,84.461784 
	C406.513733,84.545403 405.997681,84.629021 405.481628,84.712646 
	C405.401428,86.208389 405.100159,87.741417 405.343231,89.182648 
	C405.449463,89.812569 406.669586,90.254623 407.383911,90.781982 
	C407.819427,90.185501 408.254944,89.589027 408.346161,88.448112 
z"/>
<path fill="#231F20" opacity="1.000000" stroke="none" 
	d="
M235.020538,73.403572 
	C226.624969,67.888199 226.638702,56.211849 234.811325,51.198238 
	C237.195419,49.735691 239.899368,48.771713 242.506210,47.699604 
	C248.974457,45.039455 250.493256,36.020386 244.687836,30.348442 
	C244.039383,33.226326 243.484436,35.709862 242.919586,38.191143 
	C242.025665,42.118130 238.743073,44.696468 235.456635,43.759605 
	C231.510117,42.634563 230.631866,39.543156 231.110474,35.890343 
	C231.713745,31.286167 237.875854,26.035200 243.628357,25.135782 
	C243.956329,25.084505 244.292007,25.083941 244.623642,25.054590 
	C259.542358,23.734390 262.992737,26.925924 263.000488,42.045963 
	C263.004242,49.374012 263.154999,56.705757 262.962250,64.028542 
	C262.866028,67.684196 264.757324,69.650864 267.847412,69.355759 
	C269.051849,69.240730 270.797241,66.091591 270.867249,64.269569 
	C271.209503,55.359741 271.339203,46.419197 270.936798,37.516953 
	C270.815033,34.823383 268.747650,32.217758 267.055878,28.412075 
	C272.725983,27.088583 278.350494,25.634497 284.052399,24.611708 
	C284.822479,24.473574 285.981384,26.502901 286.694366,27.250023 
	C290.257874,26.494484 293.740417,25.288513 297.275696,25.106274 
	C304.120575,24.753433 307.717743,28.241743 307.921265,35.191040 
	C308.135712,42.513084 307.739960,49.857533 308.087250,57.169567 
	C308.320831,62.087395 309.382263,66.965912 310.169830,72.545631 
	C309.876221,72.584259 308.330902,72.964485 306.785950,72.963066 
	C293.631256,72.951050 280.476685,72.863396 267.321991,72.820015 
	C266.167877,72.816208 264.998230,72.874252 263.861298,73.059746 
	C255.365692,74.445763 255.331787,74.450645 250.388535,71.090752 
	C244.325851,72.100487 239.849670,72.845993 235.020538,73.403572 
M286.000000,49.500687 
	C286.297546,55.289196 286.458771,61.090946 287.018372,66.854012 
	C287.119110,67.891182 288.860779,68.769012 289.844818,69.720390 
	C290.848236,68.583893 292.692719,67.468834 292.722321,66.307518 
	C292.964233,56.817329 292.887024,47.318405 292.837646,37.822498 
	C292.833618,37.047852 292.543060,35.968922 291.993469,35.564888 
	C290.750122,34.650867 289.261536,34.070454 287.872711,33.354351 
	C287.259644,34.571529 286.196838,35.760155 286.117401,37.011215 
	C285.874969,40.829449 286.011139,44.671722 286.000000,49.500687 
M242.225357,60.003395 
	C243.609894,61.572231 244.994415,63.141064 246.378952,64.709900 
	C246.728470,64.386780 247.078003,64.063652 247.427521,63.740532 
	C247.427521,59.618999 247.427521,55.497463 247.427521,51.375931 
	C246.791046,51.193428 246.154556,51.010925 245.518082,50.828423 
	C244.386475,53.635731 243.254868,56.443039 242.225357,60.003395 
z"/>
<path fill="#231F20" opacity="1.000000" stroke="none" 
	d="
M192.093109,73.031845 
	C177.274063,72.917885 162.455109,72.774994 147.635849,72.731033 
	C146.005936,72.726196 144.360001,73.226532 142.746170,73.599350 
	C137.656540,74.775162 133.213654,73.492363 129.248657,69.902237 
	C128.185318,70.591370 127.258125,71.261459 126.268929,71.822144 
	C119.640106,75.579437 113.874802,74.525551 110.697273,69.001343 
	C107.353905,63.188824 109.179649,54.557518 114.742470,51.258480 
	C117.578079,49.576813 120.905121,48.733967 123.782593,47.109173 
	C125.706993,46.022545 128.438675,44.410122 128.695862,42.712772 
	C129.330704,38.523304 129.826981,33.810009 124.860138,30.137445 
	C124.196541,33.475555 123.889297,36.207088 123.088234,38.785183 
	C121.735123,43.139988 118.777885,44.793388 115.267418,43.519527 
	C111.726707,42.234695 110.204453,38.922562 112.023575,35.005161 
	C113.152855,32.573311 114.988564,30.271885 117.016640,28.492577 
	C122.792206,23.425426 129.912003,24.387783 136.528900,25.589308 
	C140.925247,26.387619 143.056900,30.305166 143.010986,35.082626 
	C142.926163,43.910374 142.986298,52.739658 143.015991,61.568207 
	C143.021027,63.062088 142.658279,64.910027 143.382004,65.966560 
	C144.487030,67.579765 146.243088,69.031097 148.041153,69.719582 
	C148.611267,69.937897 150.964752,67.620728 151.174774,66.259109 
	C151.802521,62.189114 152.061417,58.009186 151.939346,53.887733 
	C151.692871,45.567486 154.004501,36.846096 147.951294,29.612398 
	C156.024857,24.323689 164.798950,23.612631 167.419754,27.048927 
	C171.813751,26.335867 175.812729,25.260628 179.839752,25.142536 
	C184.748642,24.998581 187.612656,27.844206 187.918243,32.752884 
	C188.433899,41.036037 188.794525,49.334930 188.948685,57.632252 
	C189.044067,62.765903 188.661270,67.904083 191.995514,72.710098 
	C192.050323,73.068703 192.093109,73.031845 192.093109,73.031845 
M168.847916,69.427589 
	C173.343735,70.553574 173.623672,66.771088 173.726547,64.377121 
	C174.089447,55.932243 174.036377,47.459469 173.826950,39.005054 
	C173.745697,35.725681 171.815140,33.563694 167.883820,33.459297 
	C167.582993,34.507011 167.102570,35.410976 167.097046,36.317825 
	C167.038544,45.940598 167.011795,55.564251 167.105850,65.186401 
	C167.117920,66.422226 167.865555,67.650856 168.847916,69.427589 
M122.972107,56.392574 
	C122.141853,61.431988 123.388245,63.210655 128.301941,63.922085 
	C128.301941,59.549549 128.301941,55.206429 128.301941,50.863308 
	C127.868469,50.710209 127.434998,50.557106 127.001526,50.404007 
	C125.693748,52.159538 124.385979,53.915070 122.972107,56.392574 
z"/>
<path fill="#231F20" opacity="1.000000" stroke="none" 
	d="
M424.999573,25.065632 
	C425.579773,35.739208 423.376556,45.134186 415.892517,52.439953 
	C413.607697,54.670361 410.009735,55.555588 407.578125,56.773792 
	C409.245544,57.583290 412.133301,58.985241 415.021057,60.387188 
	C415.449646,60.878643 415.878235,61.370098 416.306854,61.861553 
	C417.727997,59.710258 419.149139,57.558960 420.570312,55.407665 
	C420.919769,55.576046 421.269196,55.744427 421.618652,55.912811 
	C421.467010,58.038303 421.315338,60.163795 421.141327,62.602356 
	C423.141022,62.602356 424.848389,62.602356 426.555756,62.602356 
	C426.828156,63.000290 427.100555,63.398228 427.372986,63.796162 
	C423.762146,66.400955 420.375092,69.463249 416.433197,71.391113 
	C414.797882,72.190895 411.222687,71.284996 409.874084,69.871796 
	C407.930054,67.834648 406.504120,67.619339 404.333954,68.758179 
	C404.046112,68.909225 403.643860,68.865814 403.384003,69.043343 
	C394.209320,75.311821 385.210693,74.927200 376.076660,68.760544 
	C375.095856,68.098373 372.739685,69.234993 371.126068,69.823753 
	C369.826843,70.297806 368.747498,71.663223 367.463013,71.836647 
	C363.128143,72.421944 356.718842,67.503731 355.248535,62.590202 
	C356.855591,62.590202 358.398132,62.590202 360.324768,62.590202 
	C360.110168,60.266022 359.918427,58.189747 359.625977,55.022511 
	C361.286469,56.286728 362.353271,57.054775 363.369354,57.884880 
	C364.390961,58.719471 365.362122,59.615803 366.162415,60.316185 
	C369.133820,58.879177 371.875763,57.553139 375.497650,55.801556 
	C367.651825,57.199806 363.433167,52.908600 361.046722,47.119221 
	C358.755005,41.559570 356.801727,35.596237 356.234070,29.663490 
	C355.652313,23.583416 356.931213,17.325308 357.269867,12.819843 
	C363.980713,11.093249 369.163696,10.500225 373.684479,8.448232 
	C384.318085,3.621613 394.621979,2.043004 405.390076,7.950787 
	C408.379089,9.590650 411.945343,10.262672 415.317993,11.087322 
	C417.346924,11.583420 419.513458,11.516815 423.233307,10.779548 
	C423.822021,15.382112 424.410706,19.984676 424.999573,25.065632 
M392.823883,70.400955 
	C391.183502,70.400955 389.543121,70.400955 387.902740,70.400955 
	C387.999542,71.174164 388.096344,71.947365 388.193146,72.720573 
	C390.155029,72.172310 392.116943,71.624054 394.601379,70.974457 
	C395.223206,70.388908 395.845032,69.803360 396.466858,69.217827 
	C396.130249,68.884361 395.525024,68.238380 395.496277,68.263062 
	C394.750977,68.903755 394.065643,69.614182 392.823883,70.400955 
M402.735321,61.038715 
	C405.009552,60.987823 407.602386,60.488892 407.226349,64.360939 
	C405.319641,65.072655 403.388000,65.793694 401.456329,66.514732 
	C401.613312,66.894073 401.770294,67.273415 401.927246,67.652756 
	C404.201416,66.549759 406.798370,65.802681 408.595062,64.173187 
	C409.341156,63.496536 408.377991,60.935211 408.192078,59.230942 
	C405.900330,59.610809 403.608582,59.990681 400.898163,60.640926 
	C400.183777,61.160027 399.469391,61.679131 398.755005,62.198231 
	C398.929718,62.405373 399.104431,62.612514 399.279144,62.819656 
	C400.208679,62.242069 401.138214,61.664482 402.735321,61.038715 
M400.973053,32.490349 
	C396.650665,32.333241 392.329132,32.120449 388.005371,32.056969 
	C386.880707,32.040455 385.749237,32.490047 384.620880,32.725555 
	C389.170288,33.552143 393.569427,33.929871 397.976074,34.066292 
	C398.974274,34.097195 399.998413,33.290005 401.222809,33.603897 
	C402.807556,37.875973 405.573578,40.922344 410.666138,43.050144 
	C411.376312,39.404125 411.938416,36.518261 412.630249,32.966423 
	C408.063782,32.966423 404.498260,32.966423 400.973053,32.490349 
M376.137756,54.370972 
	C376.373047,54.412685 376.608337,54.454395 376.843628,54.496098 
	C376.795013,54.145985 376.746368,53.795872 376.280823,52.910984 
	C369.100708,46.703773 366.376129,38.836498 366.913666,29.436514 
	C367.224335,24.003567 368.866547,17.562527 360.243195,15.469487 
	C360.506836,21.397989 360.127533,27.375225 361.174835,33.091061 
	C362.833496,42.143394 367.587280,49.499512 376.137756,54.370972 
M405.765167,53.972870 
	C419.572144,44.411182 422.565918,30.908144 420.001740,15.646410 
	C418.103821,16.627544 416.223633,17.599522 413.954865,18.772394 
	C414.250580,31.125912 415.743744,44.152508 404.110107,53.704109 
	C404.111176,53.951683 404.112244,54.199253 404.113312,54.446823 
	C404.431580,54.326729 404.749878,54.206635 405.765167,53.972870 
M405.837585,16.930059 
	C406.102692,13.898996 406.090118,11.053840 401.869507,11.053350 
	C394.494415,11.052494 387.109406,10.851483 379.752106,11.213675 
	C378.155090,11.292296 375.619843,13.186421 375.334900,14.608610 
	C374.778290,17.386932 375.039307,20.559454 375.848877,23.307419 
	C376.484833,25.466017 378.454742,27.231606 379.832092,29.171780 
	C380.534302,28.841209 381.236511,28.510639 381.938721,28.180069 
	C381.279266,25.336893 380.631836,22.490864 379.957672,19.651175 
	C378.759888,14.605648 379.546539,13.405928 384.748138,13.087036 
	C388.064148,12.883739 391.402802,12.958176 394.728790,13.027739 
	C401.984711,13.179496 403.308105,15.352384 400.594604,21.955711 
	C399.779907,23.938248 399.665344,26.208487 399.042358,29.268793 
	C405.990051,26.744116 405.586212,22.105196 405.837585,16.930059 
M368.142822,33.740242 
	C369.398529,37.653778 370.654236,41.567318 372.269104,46.600319 
	C373.753662,44.355282 374.121063,43.339718 374.843628,42.796906 
	C376.693634,41.407143 379.571075,40.508148 377.700348,37.418449 
	C376.527954,35.482063 375.017609,33.458168 373.141266,32.349899 
	C372.019867,31.687519 369.898712,32.717739 368.142822,33.740242 
M408.103851,21.712456 
	C406.944519,24.402554 405.785156,27.092651 404.451508,30.187201 
	C406.018799,30.265434 407.373291,30.333046 408.178680,30.373247 
	C410.305206,24.280293 412.248871,18.711296 414.344208,12.707712 
	C411.679199,11.940132 409.924805,11.434824 407.717957,10.799209 
	C407.991364,14.767812 408.207245,17.901884 408.103851,21.712456 
M372.182434,11.120647 
	C370.606750,11.845692 367.690613,12.540162 367.673279,13.300751 
	C367.562134,18.172270 368.087555,23.058310 368.463562,28.864609 
	C370.405334,25.376097 372.388824,23.093996 372.924774,20.511499 
	C373.534851,17.571524 372.852875,14.363410 372.182434,11.120647 
M392.523712,38.352577 
	C392.220306,40.403648 391.916870,42.454723 391.576111,44.758350 
	C396.866699,45.309032 396.985046,41.298691 397.878082,38.175129 
	C392.698303,33.286991 387.363647,35.780659 382.163300,37.409008 
	C381.806366,37.520767 382.116669,39.763390 382.116669,40.002831 
	C385.593353,39.343906 388.702637,38.754620 392.523712,38.352577 
M388.982056,19.725611 
	C388.701324,22.276749 388.118103,24.853603 388.331451,27.362745 
	C388.392303,28.078699 390.764923,28.598093 392.077484,29.207609 
	C392.355499,26.812523 392.971130,24.385578 392.749603,22.037628 
	C392.657715,21.063908 390.775696,20.259106 388.982056,19.725611 
M394.361542,5.975196 
	C389.322083,4.107159 386.191345,4.909286 384.548370,8.340051 
	C386.560242,7.669387 388.689209,6.404967 390.814026,6.411889 
	C392.823547,6.418435 394.828674,7.760034 396.835754,8.514440 
	C396.972870,8.264306 397.109985,8.014172 397.247101,7.764037 
	C396.497162,7.218996 395.747192,6.673954 394.361542,5.975196 
M379.557953,60.916531 
	C377.371094,60.384628 375.184235,59.852722 372.997375,59.320816 
	C372.746704,60.869598 372.496033,62.418381 372.245392,63.967163 
	C372.653931,64.238907 373.062500,64.510643 373.471069,64.782387 
	C373.953888,60.536453 376.071381,59.772999 379.557953,60.916531 
M378.248840,67.564957 
	C379.721619,68.209244 381.194397,68.853531 382.667206,69.497818 
	C382.804382,69.046410 382.941559,68.595001 383.078735,68.143593 
	C381.378571,67.830872 379.678406,67.518143 378.248840,67.564957 
M381.646576,32.574127 
	C381.503693,32.819439 381.360779,33.064751 381.217896,33.310070 
	C381.465637,33.423962 381.713348,33.537853 381.961090,33.651749 
	C381.945129,33.353340 381.929199,33.054928 381.646576,32.574127 
M375.386658,64.552109 
	C375.386658,64.552109 375.540771,64.664253 375.540771,64.664253 
	C375.540771,64.664253 375.537445,64.467957 375.386658,64.552109 
z"/>
<path fill="#231F20" opacity="1.000000" stroke="none" 
	d="
M555.993286,9.311570 
	C555.997498,26.430056 555.861328,43.086906 556.100037,59.738380 
	C556.157471,63.746380 557.458069,67.736565 558.274292,72.214149 
	C553.298096,75.025085 544.926514,74.839157 540.710999,71.150063 
	C528.648193,76.507607 520.612366,72.712776 518.536377,59.521103 
	C516.841431,48.750980 516.726135,37.646202 526.139709,29.538158 
	C528.533569,27.476273 531.763367,25.942703 534.854553,25.227316 
	C540.762634,23.860050 542.928101,19.642550 539.935120,14.023819 
	C536.225159,7.059116 536.221924,7.045741 543.981567,5.184993 
	C545.916016,4.721122 547.942932,4.565471 549.815491,3.935724 
	C554.539551,2.347038 556.448364,4.047468 555.993286,9.311570 
M531.003357,49.285473 
	C531.185730,58.237553 533.075500,62.073151 538.796387,64.092842 
	C538.796387,53.654392 538.915955,43.415485 538.648560,33.186707 
	C538.614197,31.872889 536.569153,30.611641 535.455566,29.326036 
	C534.274597,30.553442 532.247498,31.666677 532.063782,33.028633 
	C531.381165,38.087872 531.305176,43.228954 531.003357,49.285473 
z"/>
<path fill="#231F20" opacity="1.000000" stroke="none" 
	d="
M192.035034,73.092438 
	C192.634964,71.348694 194.135605,69.322533 193.708237,67.859650 
	C192.081100,62.290180 193.008652,57.701195 197.110184,54.273396 
	C195.348404,50.556553 192.822617,47.241447 192.219635,43.607307 
	C189.605164,27.850101 204.949005,20.986284 214.998444,25.477882 
	C220.050430,27.735880 224.116119,28.403500 229.041870,25.061541 
	C229.959671,28.918455 231.674011,32.060936 226.404114,33.254787 
	C225.433868,33.474590 224.311829,35.263325 224.145065,36.452061 
	C221.947464,52.117935 221.183533,52.923439 205.351517,55.189701 
	C204.905853,55.253494 204.501068,55.602737 202.603348,56.570496 
	C205.103928,57.649914 206.573624,58.644112 208.161606,58.897816 
	C211.917847,59.497932 215.759003,59.569149 219.513367,60.177814 
	C225.235580,61.105511 227.810318,64.300041 227.989975,70.075760 
	C228.233948,77.918144 225.109924,83.971466 218.241425,87.798355 
	C210.971237,91.849052 203.284760,92.373329 195.786911,88.713509 
	C190.277222,86.024147 189.160339,80.824600 191.925171,73.364769 
	C192.093109,73.031845 192.050323,73.068703 192.035034,73.092438 
M217.966217,74.711998 
	C213.594543,73.533630 209.249084,72.229805 204.824417,71.305008 
	C204.117905,71.157333 202.175919,72.919945 202.300797,73.441116 
	C203.146973,76.973213 203.615829,81.025085 205.732651,83.702423 
	C207.842636,86.371140 211.798721,86.841499 215.283295,84.775665 
	C219.058044,82.537788 219.662521,79.255295 217.966217,74.711998 
M206.295013,49.477924 
	C208.191071,51.961693 210.227142,51.195744 210.392990,48.720131 
	C210.787201,42.835762 210.538849,36.895798 210.253601,30.992624 
	C210.213013,30.152693 208.519958,29.392611 207.591705,28.595572 
	C206.784256,29.574366 205.277878,30.557720 205.284241,31.531204 
	C205.321808,37.288483 205.710648,43.043472 206.295013,49.477924 
z"/>
<path fill="#231F20" opacity="1.000000" stroke="none" 
	d="
M469.193207,67.504059 
	C471.087982,68.856606 472.729462,69.916122 474.409424,71.000481 
	C471.673553,73.460640 449.986877,73.962646 444.355713,71.605728 
	C445.257233,70.949738 445.875946,70.197548 446.640778,69.993744 
	C450.573364,68.945740 451.859528,65.926979 451.887817,62.441944 
	C452.016205,46.626511 452.020081,30.809172 451.922211,14.993423 
	C451.898071,11.090623 449.416534,9.815135 446.500641,12.533162 
	C443.668549,15.173074 441.877380,18.902018 439.431976,21.997002 
	C438.342987,23.375273 436.770538,24.371578 435.417542,25.541277 
	C435.250763,24.052664 434.954712,22.565149 434.941956,21.075211 
	C434.906372,16.914087 435.118530,12.747791 434.985718,8.591438 
	C434.860229,4.664577 436.720764,3.569861 440.256775,4.281287 
	C453.740295,6.994104 467.221802,7.073770 480.716644,4.306254 
	C481.965820,4.050073 483.313049,4.272138 485.571320,4.272138 
	C484.634613,11.560860 483.746490,18.471315 482.858398,25.381769 
	C482.264099,25.537659 481.669800,25.693546 481.075531,25.849434 
	C480.330261,24.565844 479.558167,23.296963 478.845062,21.995773 
	C477.048279,18.717424 475.801971,14.945316 473.353760,12.268633 
	C470.768372,9.441978 467.085693,10.956729 467.130249,14.583152 
	C467.338287,31.527557 467.783173,48.469143 468.187408,65.410690 
	C468.201874,66.016441 468.678589,66.611168 469.193207,67.504059 
z"/>
<path fill="#231F20" opacity="1.000000" stroke="none" 
	d="
M36.975124,73.000000 
	C30.859514,72.966507 25.238605,72.933022 19.617699,72.899536 
	C19.321915,72.285393 19.026133,71.671249 18.730349,71.057106 
	C28.333975,68.556870 26.488489,60.755226 26.795370,54.656425 
	C27.430372,42.036774 27.055063,29.362356 26.920113,16.712332 
	C26.901001,14.920950 25.900440,13.140038 25.354145,11.354280 
	C23.313597,12.188601 20.768688,12.527678 19.349926,13.972549 
	C17.185925,16.176376 15.824493,19.160782 14.075201,21.782330 
	C13.135099,23.191200 12.096814,24.534554 11.102831,25.907471 
	C10.430573,25.777475 9.758315,25.647478 9.086057,25.517481 
	C9.086057,22.725525 8.962004,19.926571 9.118976,17.143467 
	C9.295947,14.005744 9.874598,10.888447 10.004546,7.750916 
	C10.137920,4.530666 11.706210,3.821826 14.583018,4.365371 
	C28.255314,6.948622 41.937408,7.008180 55.607960,4.313250 
	C58.553471,3.732590 60.231632,4.724730 59.865978,7.911754 
	C59.280956,13.010717 58.641720,18.106968 57.830441,23.173143 
	C57.688911,24.056940 56.588661,24.787210 55.931202,25.588390 
	C55.299351,24.943624 54.400703,24.407135 54.086678,23.633383 
	C53.214821,21.485140 52.758854,19.159979 51.805599,17.055546 
	C51.072788,15.437785 50.121292,13.638077 48.740093,12.675040 
	C47.392204,11.735229 45.227283,11.181093 43.710560,11.574321 
	C42.847321,11.798126 42.120197,14.249369 42.092484,15.711974 
	C41.934792,24.032436 42.005363,32.357243 42.000431,40.680573 
	C41.997963,44.842255 41.870304,49.008892 42.029148,53.164501 
	C42.294701,60.111610 39.593403,68.230385 49.984955,71.425667 
	C49.659470,71.950447 49.333984,72.475220 49.008499,73.000000 
	C45.162273,73.000000 41.316051,73.000000 36.975124,73.000000 
z"/>
<path fill="#231F20" opacity="1.000000" stroke="none" 
	d="
M505.042725,26.709326 
	C518.100952,35.215935 516.813660,61.945061 506.919922,69.826027 
	C498.704193,76.370361 484.588257,75.558556 479.200470,66.571861 
	C472.815186,55.921326 472.999908,44.438347 478.452148,33.656128 
	C483.404968,23.861582 493.681854,21.570824 505.042725,26.709326 
M497.773682,45.942345 
	C497.094910,41.536961 496.658966,37.071705 495.596222,32.760975 
	C495.257019,31.385204 493.254852,30.419415 492.013580,29.266045 
	C491.020294,30.606718 489.186646,31.935663 489.167725,33.289932 
	C489.027130,43.361870 489.011322,53.451050 489.533600,63.504845 
	C489.650665,65.758820 492.046753,67.894409 494.063721,71.174103 
	C498.825714,62.367542 497.921143,54.550388 497.773682,45.942345 
z"/>
<path fill="#231F20" opacity="1.000000" stroke="none" 
	d="
M333.762207,25.005440 
	C342.372192,25.390806 345.644684,29.280474 345.933685,39.548199 
	C346.148987,47.197983 345.810669,54.865078 346.098511,62.510174 
	C346.203979,65.310654 347.402069,68.070000 348.371490,71.919220 
	C345.939209,75.217735 339.388794,75.077438 330.870972,70.207420 
	C320.969482,78.204475 313.241425,73.197105 311.311920,64.320374 
	C310.261383,59.487415 312.875641,53.767254 317.729095,50.909348 
	C320.282928,49.405556 323.258942,48.617367 325.807892,47.107048 
	C327.713043,45.978203 330.501282,44.352432 330.686951,42.699745 
	C331.152710,38.553486 332.414307,33.635258 326.660950,30.274189 
	C326.294281,32.960384 326.523315,35.410484 325.570374,37.247345 
	C324.300140,39.695698 322.464447,42.307854 320.168243,43.575363 
	C319.006714,44.216537 314.770233,42.290558 314.590637,41.117138 
	C314.138763,38.164783 314.305664,34.412579 315.833466,31.999840 
	C319.785858,25.758011 326.217377,24.196016 333.762207,25.005440 
M329.998169,56.665405 
	C329.880493,54.768745 329.762787,52.872086 329.614258,50.478939 
	C324.881348,52.370892 323.009613,55.423450 323.494598,59.541267 
	C323.833405,62.417538 325.306152,64.864273 329.572723,64.303795 
	C329.716248,62.024616 329.857422,59.782745 329.998169,56.665405 
z"/>
<path fill="#231F20" opacity="1.000000" stroke="none" 
	d="
M594.000061,58.903999 
	C594.214294,63.367996 592.677856,67.908127 597.702881,70.139435 
	C594.923523,74.311287 589.511597,75.584679 584.536560,72.612244 
	C580.967285,70.479652 578.436707,70.323540 574.924072,72.802490 
	C571.075256,75.518738 565.164185,74.179306 562.654785,70.934174 
	C559.058472,66.283409 558.764404,57.354683 562.960022,53.847374 
	C566.422668,50.952782 570.740967,48.723358 575.043762,47.293568 
	C579.291748,45.881985 580.783386,43.489998 579.859253,39.601589 
	C579.138306,36.568413 580.085754,32.589462 575.885742,30.424736 
	C575.058899,33.790863 574.582642,36.708000 573.609863,39.448921 
	C572.309631,43.112400 569.373291,44.880108 565.719482,43.486507 
	C562.017822,42.074677 561.355286,38.782288 562.518433,35.143784 
	C564.145630,30.053896 567.984802,26.717445 572.815491,25.922495 
	C577.902527,25.085360 583.426941,25.207047 588.465027,26.287094 
	C592.820190,27.220741 593.899536,31.739460 593.956055,35.925621 
	C594.057373,43.422520 593.994324,50.921635 594.000061,58.903999 
M577.406372,51.265713 
	C572.527649,51.250179 572.109436,55.236408 571.800842,58.408569 
	C571.494995,61.552082 573.277527,64.041412 577.735657,64.257935 
	C577.735657,59.986454 577.735657,55.941402 577.406372,51.265713 
z"/>
<path fill="#231F20" opacity="1.000000" stroke="none" 
	d="
M623.406738,46.150856 
	C623.988037,44.198853 624.423035,42.596920 624.824829,40.986713 
	C625.987183,36.329334 625.981995,36.328041 622.587158,25.692444 
	C627.852112,25.692444 633.019226,25.692444 638.253235,25.692444 
	C638.364319,26.301350 638.689148,27.036154 638.501831,27.205948 
	C631.821777,33.261139 630.449402,41.778526 627.831421,49.758244 
	C624.363403,60.328396 620.806030,70.876335 616.944702,81.307091 
	C615.233459,85.929672 612.415710,90.265663 606.610352,89.775124 
	C604.690979,89.612938 601.972473,87.715576 601.350403,85.988152 
	C600.390320,83.322403 600.378662,79.887878 603.926392,78.275543 
	C605.123596,77.731415 606.433594,77.352905 607.731750,77.126953 
	C614.742432,75.906723 614.815430,75.875740 612.459961,68.935921 
	C608.990723,58.714615 605.705627,48.418751 601.817993,38.357159 
	C600.157715,34.060272 597.175964,30.273994 594.534546,25.816738 
	C602.788818,25.816738 611.088623,25.816738 619.388428,25.816738 
	C615.628235,29.661526 615.659790,33.705231 617.162048,38.236198 
	C618.554016,42.434685 619.486389,46.785583 621.628357,51.277119 
	C622.167358,49.683796 622.706360,48.090477 623.406738,46.150856 
z"/>
<path fill="#231F20" opacity="1.000000" stroke="none" 
	d="
M104.984177,8.405115 
	C104.993721,25.317600 104.852562,41.779434 105.094200,58.235645 
	C105.160751,62.767334 106.369942,67.282242 107.136589,72.344749 
	C101.161354,72.344749 93.960503,72.344749 85.317810,72.344749 
	C91.064690,67.415588 89.967384,61.803810 89.986229,56.457935 
	C90.029015,44.321129 90.174210,32.179733 89.876198,20.050070 
	C89.799789,16.940424 88.659660,13.646608 87.219353,10.842606 
	C85.898460,8.271065 86.490616,6.975846 88.801094,6.339685 
	C92.946762,5.198233 97.157982,4.248244 101.389091,3.477940 
	C105.016640,2.817515 104.821808,5.616542 104.984177,8.405115 
z"/>
<path fill="#231F20" opacity="1.000000" stroke="none" 
	d="
M82.362312,31.886356 
	C86.967712,45.911549 86.906273,45.998596 72.819351,45.999966 
	C69.845070,46.000256 66.870789,46.000011 63.468639,46.000011 
	C62.397892,52.229809 64.530426,57.205650 68.120995,61.345234 
	C72.722267,66.650047 77.988358,65.223579 82.943336,60.376514 
	C83.384743,66.632797 76.724663,73.252518 70.619247,73.931435 
	C60.378269,75.070221 54.109493,71.201500 51.013557,61.269283 
	C47.312901,49.397011 48.508694,38.270905 57.570591,28.995731 
	C65.148796,21.239164 76.073090,22.489950 82.362312,31.886356 
M69.209473,31.690401 
	C67.195122,28.039011 65.273506,28.635159 63.688499,31.949097 
	C62.990246,33.409012 62.483124,35.069588 62.376064,36.671593 
	C62.273724,38.202995 62.384190,40.822289 63.138088,41.124413 
	C64.978485,41.861950 67.304230,41.831921 69.300117,41.434906 
	C69.817406,41.332008 70.012764,38.742863 70.042862,37.289249 
	C70.076668,35.656231 69.755821,34.015877 69.209473,31.690401 
z"/>
<path fill="#231F20" opacity="1.000000" stroke="none" 
	d="
M477.279907,84.063919 
	C479.107849,84.158073 480.548218,84.273911 481.981995,84.389221 
	C482.766327,89.559898 480.832123,91.496658 475.649017,90.387428 
	C475.824188,88.276588 471.712402,85.564194 477.279907,84.063919 
z"/>
<path fill="#231F20" opacity="1.000000" stroke="none" 
	d="
M456.078857,87.636032 
	C457.348694,86.252625 458.619934,85.242409 459.891144,84.232193 
	C460.720459,86.090256 461.549744,87.948334 462.379059,89.806404 
	C461.693665,90.347168 461.008270,90.887932 460.322906,91.428696 
	C458.908661,90.288872 457.494446,89.149048 456.078857,87.636032 
z"/>
<path fill="#231F20" opacity="1.000000" stroke="none" 
	d="
M385.728241,88.663933 
	C384.102478,89.491837 382.560516,89.946358 381.018555,90.400879 
	C380.773712,89.010986 380.091583,87.499901 380.431824,86.272156 
	C380.674103,85.397873 382.292358,84.904922 383.296570,84.241806 
	C384.135071,85.591385 384.973541,86.940971 385.728241,88.663933 
z"/>
<path fill="#231F20" opacity="1.000000" stroke="none" 
	d="
M298.656677,90.713844 
	C297.224121,89.715233 295.759430,88.793854 295.271576,87.503242 
	C294.998840,86.781731 296.131592,84.896851 297.026550,84.546448 
	C297.895782,84.206123 300.277771,85.227318 300.256683,85.528862 
	C300.136078,87.251595 299.496307,88.937988 298.656677,90.713844 
z"/>
<path fill="#231F20" opacity="1.000000" stroke="none" 
	d="
M414.812683,84.950218 
	C416.532471,85.551521 418.168854,86.175941 419.276550,87.314651 
	C419.613617,87.661125 418.738831,90.109291 417.982727,90.381065 
	C416.834045,90.793976 414.264099,90.411133 414.134583,89.900467 
	C413.766815,88.450317 414.329681,86.764160 414.812683,84.950218 
z"/>
<path fill="#231F20" opacity="1.000000" stroke="none" 
	d="
M333.744141,86.373070 
	C332.993774,88.085297 332.165161,89.423592 331.336578,90.761902 
	C330.326263,90.130074 328.671967,89.662247 328.459351,88.827286 
	C328.154114,87.628723 328.899841,86.162537 329.196930,84.810593 
	C330.686584,85.206779 332.176239,85.602959 333.744141,86.373070 
z"/>
<path fill="#231F20" opacity="1.000000" stroke="none" 
	d="
M400.876556,87.260040 
	C399.815308,88.689125 398.733704,89.737030 397.652100,90.784935 
	C396.840485,89.903763 395.315338,88.962784 395.383026,88.155312 
	C395.486816,86.917160 396.687042,85.770912 397.421906,84.585663 
	C398.566681,85.350060 399.711456,86.114464 400.876556,87.260040 
z"/>
<path fill="#231F20" opacity="1.000000" stroke="none" 
	d="
M426.373444,84.528587 
	C427.027466,85.052071 427.655945,85.448914 427.622192,85.777855 
	C427.452240,87.435295 427.109619,89.075050 426.827606,90.721024 
	C425.631958,90.189720 423.581268,89.853630 423.406738,89.089188 
	C422.949554,87.086792 422.049530,84.154121 426.373444,84.528587 
z"/>
<path fill="#231F20" opacity="1.000000" stroke="none" 
	d="
M305.098206,87.157700 
	C306.068054,85.983505 307.024872,85.197182 307.981689,84.410858 
	C308.604675,85.769966 309.521210,87.088356 309.717865,88.506569 
	C309.806549,89.146286 308.460876,89.984924 307.765991,90.733322 
	C306.872406,89.670738 305.978790,88.608147 305.098206,87.157700 
z"/>
<path fill="#231F20" opacity="1.000000" stroke="none" 
	d="
M342.646179,86.997574 
	C342.227417,88.478561 341.853821,89.649895 341.480194,90.821228 
	C340.407745,90.300423 338.418945,89.757080 338.431091,89.262939 
	C338.470825,87.646919 339.239197,86.048805 339.727356,84.443802 
	C340.715363,85.191833 341.703369,85.939873 342.646179,86.997574 
z"/>
<path fill="#231F20" opacity="1.000000" stroke="none" 
	d="
M436.770874,85.451004 
	C437.272827,87.136024 437.628479,88.500557 438.188263,90.648224 
	C435.787201,90.538300 434.146637,90.463188 431.796356,90.355583 
	C433.388672,87.877686 431.649109,83.621552 436.770874,85.451004 
z"/>
<path fill="#231F20" opacity="1.000000" stroke="none" 
	d="
M466.152557,88.613136 
	C467.032318,86.901497 467.958344,85.567451 468.884338,84.233414 
	C469.582916,86.166832 470.281494,88.100250 470.980072,90.033669 
	C470.502472,90.382401 470.024872,90.731133 469.547302,91.079865 
	C468.431122,90.383484 467.314972,89.687111 466.152557,88.613136 
z"/>
<path fill="#231F20" opacity="1.000000" stroke="none" 
	d="
M489.805420,84.548409 
	C491.277191,87.676552 492.153687,90.505623 486.889801,90.890862 
	C486.899261,88.124786 484.016388,84.799294 489.805420,84.548409 
z"/>
<path fill="#231F20" opacity="1.000000" stroke="none" 
	d="
M352.629211,89.480553 
	C350.946381,90.128616 349.330444,90.444321 346.318939,91.032661 
	C347.822662,87.833252 348.721130,85.921600 349.619598,84.009949 
	C350.143585,84.095108 350.667572,84.180267 351.191559,84.265419 
	C351.693054,85.893005 352.194580,87.520599 352.629211,89.480553 
z"/>
<path fill="#231F20" opacity="1.000000" stroke="none" 
	d="
M374.940216,88.728638 
	C373.976593,89.126801 372.439270,89.476379 372.313232,89.194626 
	C371.743256,87.920448 371.572235,86.467789 371.259521,85.088280 
	C375.774017,84.020325 375.774017,84.020325 374.940216,88.728638 
z"/>
<path fill="#231F20" opacity="1.000000" stroke="none" 
	d="
M408.518311,88.720329 
	C408.254944,89.589027 407.819427,90.185501 407.383911,90.781982 
	C406.669586,90.254623 405.449463,89.812569 405.343231,89.182648 
	C405.100159,87.741417 405.401428,86.208389 405.481628,84.712646 
	C405.997681,84.629021 406.513733,84.545403 407.029785,84.461784 
	C407.468567,85.790558 407.907349,87.119339 408.518311,88.720329 
z"/>
<path fill="#47704C" opacity="1.000000" stroke="none" 
	d="
M286.000000,49.002663 
	C286.011139,44.671722 285.874969,40.829449 286.117401,37.011215 
	C286.196838,35.760155 287.259644,34.571529 287.872711,33.354355 
	C289.261536,34.070454 290.750122,34.650867 291.993469,35.564888 
	C292.543060,35.968922 292.833618,37.047852 292.837646,37.822498 
	C292.887024,47.318405 292.964233,56.817329 292.722321,66.307518 
	C292.692719,67.468834 290.848236,68.583893 289.844818,69.720398 
	C288.860779,68.769012 287.119110,67.891182 287.018372,66.854012 
	C286.458771,61.090946 286.297546,55.289196 286.000000,49.002663 
z"/>
<path fill="#47704C" opacity="1.000000" stroke="none" 
	d="
M242.174316,59.626869 
	C243.254868,56.443039 244.386475,53.635731 245.518082,50.828423 
	C246.154556,51.010925 246.791046,51.193428 247.427521,51.375931 
	C247.427521,55.497463 247.427521,59.618999 247.427521,63.740532 
	C247.078003,64.063652 246.728470,64.386780 246.378952,64.709900 
	C244.994415,63.141064 243.609894,61.572231 242.174316,59.626869 
z"/>
<path fill="#47704C" opacity="1.000000" stroke="none" 
	d="
M168.560181,69.155212 
	C167.865555,67.650856 167.117920,66.422226 167.105850,65.186401 
	C167.011795,55.564251 167.038544,45.940598 167.097046,36.317825 
	C167.102570,35.410976 167.582993,34.507011 167.883820,33.459297 
	C171.815140,33.563694 173.745697,35.725681 173.826950,39.005054 
	C174.036377,47.459469 174.089447,55.932243 173.726547,64.377121 
	C173.623672,66.771088 173.343735,70.553574 168.560181,69.155212 
z"/>
<path fill="#47704C" opacity="1.000000" stroke="none" 
	d="
M123.025162,56.031590 
	C124.385979,53.915070 125.693748,52.159538 127.001526,50.404007 
	C127.434998,50.557106 127.868469,50.710209 128.301941,50.863308 
	C128.301941,55.206429 128.301941,59.549549 128.301941,63.922085 
	C123.388245,63.210655 122.141853,61.431988 123.025162,56.031590 
z"/>
<path fill="#47704C" opacity="1.000000" stroke="none" 
	d="
M405.753235,17.314667 
	C405.586212,22.105196 405.990051,26.744116 399.042358,29.268793 
	C399.665344,26.208487 399.779907,23.938248 400.594604,21.955711 
	C403.308105,15.352384 401.984711,13.179496 394.728790,13.027739 
	C391.402802,12.958176 388.064148,12.883739 384.748138,13.087036 
	C379.546539,13.405928 378.759888,14.605648 379.957672,19.651175 
	C380.631836,22.490864 381.279266,25.336893 381.938721,28.180069 
	C381.236511,28.510639 380.534302,28.841209 379.832092,29.171780 
	C378.454742,27.231606 376.484833,25.466017 375.848877,23.307419 
	C375.039307,20.559454 374.778290,17.386932 375.334900,14.608610 
	C375.619843,13.186421 378.155090,11.292296 379.752106,11.213675 
	C387.109406,10.851483 394.494415,11.052494 401.869507,11.053350 
	C406.090118,11.053840 406.102692,13.898996 405.753235,17.314667 
z"/>
<path fill="#47704C" opacity="1.000000" stroke="none" 
	d="
M404.300720,53.447987 
	C415.743744,44.152508 414.250580,31.125912 413.954865,18.772394 
	C416.223633,17.599522 418.103821,16.627544 420.001740,15.646410 
	C422.565918,30.908144 419.572144,44.411182 405.227234,53.867149 
	C404.689301,53.761433 404.300720,53.447987 404.300720,53.447987 
z"/>
<path fill="#47704C" opacity="1.000000" stroke="none" 
	d="
M375.933929,54.088676 
	C367.587280,49.499512 362.833496,42.143394 361.174835,33.091061 
	C360.127533,27.375225 360.506836,21.397989 360.243195,15.469487 
	C368.866547,17.562527 367.224335,24.003567 366.913666,29.436514 
	C366.376129,38.836498 369.100708,46.703773 376.295898,53.336212 
	C376.310974,53.761444 375.933929,54.088676 375.933929,54.088676 
z"/>
<path fill="#47704C" opacity="1.000000" stroke="none" 
	d="
M368.184875,33.363686 
	C369.898712,32.717739 372.019867,31.687519 373.141266,32.349899 
	C375.017609,33.458168 376.527954,35.482063 377.700348,37.418449 
	C379.571075,40.508148 376.693634,41.407143 374.843628,42.796906 
	C374.121063,43.339718 373.753662,44.355282 372.269104,46.600319 
	C370.654236,41.567318 369.398529,37.653778 368.184875,33.363686 
z"/>
<path fill="#47704C" opacity="1.000000" stroke="none" 
	d="
M408.263489,21.374207 
	C408.207245,17.901884 407.991364,14.767812 407.717957,10.799209 
	C409.924805,11.434824 411.679199,11.940132 414.344208,12.707712 
	C412.248871,18.711296 410.305206,24.280293 408.178680,30.373247 
	C407.373291,30.333046 406.018799,30.265434 404.451508,30.187201 
	C405.785156,27.092651 406.944519,24.402554 408.263489,21.374207 
z"/>
<path fill="#47704C" opacity="1.000000" stroke="none" 
	d="
M372.457489,11.196247 
	C372.852875,14.363410 373.534851,17.571524 372.924774,20.511499 
	C372.388824,23.093996 370.405334,25.376097 368.463562,28.864609 
	C368.087555,23.058310 367.562134,18.172270 367.673279,13.300751 
	C367.690613,12.540162 370.606750,11.845692 372.457489,11.196247 
z"/>
<path fill="#47704C" opacity="1.000000" stroke="none" 
	d="
M400.932770,32.966423 
	C404.498260,32.966423 408.063782,32.966423 412.630249,32.966423 
	C411.938416,36.518261 411.376312,39.404125 410.666138,43.050144 
	C405.573578,40.922344 402.807556,37.875973 401.099243,33.262291 
	C400.975677,32.920685 400.932770,32.966423 400.932770,32.966423 
z"/>
<path fill="#47704C" opacity="1.000000" stroke="none" 
	d="
M392.167816,38.258957 
	C388.702637,38.754620 385.593353,39.343906 382.116669,40.002831 
	C382.116669,39.763390 381.806366,37.520767 382.163300,37.409008 
	C387.363647,35.780659 392.698303,33.286991 397.878082,38.175129 
	C396.985046,41.298691 396.866699,45.309032 391.576111,44.758350 
	C391.916870,42.454723 392.220306,40.403648 392.167816,38.258957 
z"/>
<path fill="#47704C" opacity="1.000000" stroke="none" 
	d="
M389.344910,19.551548 
	C390.775696,20.259106 392.657715,21.063908 392.749603,22.037628 
	C392.971130,24.385578 392.355499,26.812523 392.077484,29.207615 
	C390.764923,28.598093 388.392303,28.078699 388.331451,27.362745 
	C388.118103,24.853603 388.701324,22.276749 389.344910,19.551548 
z"/>
<path fill="#47704C" opacity="1.000000" stroke="none" 
	d="
M401.316833,60.370548 
	C403.608582,59.990681 405.900330,59.610809 408.192078,59.230942 
	C408.377991,60.935211 409.341156,63.496536 408.595062,64.173187 
	C406.798370,65.802681 404.201416,66.549759 401.927246,67.652756 
	C401.770294,67.273415 401.613312,66.894073 401.456329,66.514732 
	C403.388000,65.793694 405.319641,65.072655 407.226349,64.360939 
	C407.602386,60.488892 405.009552,60.987823 402.215240,60.882214 
	C401.569031,60.607323 401.442932,60.488937 401.316833,60.370548 
z"/>
<path fill="#47704C" opacity="1.000000" stroke="none" 
	d="
M400.993134,32.894638 
	C399.998413,33.290005 398.974274,34.097195 397.976074,34.066292 
	C393.569427,33.929871 389.170288,33.552143 384.620880,32.725555 
	C385.749237,32.490047 386.880707,32.040455 388.005371,32.056969 
	C392.329132,32.120449 396.650665,32.333241 400.952911,32.728386 
	C400.932770,32.966423 400.975677,32.920685 400.993134,32.894638 
z"/>
<path fill="#47704C" opacity="1.000000" stroke="none" 
	d="
M394.679382,6.052054 
	C395.747192,6.673954 396.497162,7.218996 397.247101,7.764037 
	C397.109985,8.014172 396.972870,8.264306 396.835754,8.514440 
	C394.828674,7.760034 392.823547,6.418435 390.814026,6.411889 
	C388.689209,6.404967 386.560242,7.669387 384.548370,8.340051 
	C386.191345,4.909286 389.322083,4.107159 394.679382,6.052054 
z"/>
<path fill="#47704C" opacity="1.000000" stroke="none" 
	d="
M379.388550,61.060417 
	C376.071381,59.772999 373.953888,60.536453 373.471069,64.782387 
	C373.062500,64.510643 372.653931,64.238907 372.245392,63.967163 
	C372.496033,62.418381 372.746704,60.869598 372.997375,59.320816 
	C375.184235,59.852722 377.371094,60.384628 379.388550,61.060417 
z"/>
<path fill="#47704C" opacity="1.000000" stroke="none" 
	d="
M394.078827,71.075790 
	C392.116943,71.624054 390.155029,72.172310 388.193146,72.720573 
	C388.096344,71.947365 387.999542,71.174164 387.902740,70.400955 
	C389.543121,70.400955 391.183502,70.400955 393.272705,70.548874 
	C393.840637,70.823112 393.959717,70.949448 394.078827,71.075790 
z"/>
<path fill="#47704C" opacity="1.000000" stroke="none" 
	d="
M378.113525,67.385193 
	C379.678406,67.518143 381.378571,67.830872 383.078735,68.143593 
	C382.941559,68.595001 382.804382,69.046410 382.667206,69.497818 
	C381.194397,68.853531 379.721619,68.209244 378.113525,67.385193 
z"/>
<path fill="#47704C" opacity="1.000000" stroke="none" 
	d="
M393.545746,70.504669 
	C394.065643,69.614182 394.750977,68.903755 395.496277,68.263062 
	C395.525024,68.238380 396.130249,68.884361 396.466858,69.217819 
	C395.845032,69.803360 395.223206,70.388908 394.340088,71.025124 
	C393.959717,70.949448 393.840637,70.823112 393.545746,70.504669 
z"/>
<path fill="#47704C" opacity="1.000000" stroke="none" 
	d="
M401.881470,60.906303 
	C401.138214,61.664482 400.208679,62.242069 399.279144,62.819656 
	C399.104431,62.612514 398.929718,62.405373 398.755005,62.198231 
	C399.469391,61.679131 400.183777,61.160027 401.107483,60.505737 
	C401.442932,60.488937 401.569031,60.607323 401.881470,60.906303 
z"/>
<path fill="#47704C" opacity="1.000000" stroke="none" 
	d="
M381.779907,32.665321 
	C381.929199,33.054928 381.945129,33.353340 381.961090,33.651749 
	C381.713348,33.537853 381.465637,33.423962 381.217896,33.310066 
	C381.360779,33.064751 381.503693,32.819439 381.779907,32.665321 
z"/>
<path fill="#47704C" opacity="1.000000" stroke="none" 
	d="
M404.878723,53.923988 
	C404.749878,54.206635 404.431580,54.326729 404.113312,54.446823 
	C404.112244,54.199253 404.111176,53.951683 404.205414,53.576050 
	C404.300720,53.447987 404.689301,53.761433 404.878723,53.923988 
z"/>
<path fill="#47704C" opacity="1.000000" stroke="none" 
	d="
M376.504333,53.603600 
	C376.746368,53.795872 376.795013,54.145985 376.843628,54.496101 
	C376.608337,54.454395 376.373047,54.412685 376.035828,54.229824 
	C375.933929,54.088676 376.310974,53.761444 376.504333,53.603600 
z"/>
<path fill="#47704C" opacity="1.000000" stroke="none" 
	d="
M375.462036,64.510033 
	C375.537445,64.467957 375.540771,64.664253 375.540771,64.664253 
	C375.540771,64.664253 375.386658,64.552109 375.462036,64.510033 
z"/>
<path fill="#47704C" opacity="1.000000" stroke="none" 
	d="
M531.002380,48.812393 
	C531.305176,43.228954 531.381165,38.087872 532.063782,33.028633 
	C532.247498,31.666677 534.274597,30.553442 535.455566,29.326038 
	C536.569153,30.611641 538.614197,31.872889 538.648560,33.186707 
	C538.915955,43.415485 538.796387,53.654392 538.796387,64.092842 
	C533.075500,62.073151 531.185730,58.237553 531.002380,48.812393 
z"/>
<path fill="#47704C" opacity="1.000000" stroke="none" 
	d="
M218.209351,75.032013 
	C219.662521,79.255295 219.058044,82.537788 215.283295,84.775665 
	C211.798721,86.841499 207.842636,86.371140 205.732651,83.702423 
	C203.615829,81.025085 203.146973,76.973213 202.300797,73.441116 
	C202.175919,72.919945 204.117905,71.157333 204.824417,71.305008 
	C209.249084,72.229805 213.594543,73.533630 218.209351,75.032013 
z"/>
<path fill="#47704C" opacity="1.000000" stroke="none" 
	d="
M206.138153,49.138580 
	C205.710648,43.043472 205.321808,37.288483 205.284241,31.531204 
	C205.277878,30.557720 206.784256,29.574366 207.591705,28.595573 
	C208.519958,29.392611 210.213013,30.152693 210.253601,30.992624 
	C210.538849,36.895798 210.787201,42.835762 210.392990,48.720131 
	C210.227142,51.195744 208.191071,51.961693 206.138153,49.138580 
z"/>
<path fill="#47704C" opacity="1.000000" stroke="none" 
	d="
M497.834167,46.404358 
	C497.921143,54.550388 498.825714,62.367542 494.063721,71.174103 
	C492.046753,67.894409 489.650665,65.758820 489.533600,63.504845 
	C489.011322,53.451050 489.027130,43.361870 489.167725,33.289932 
	C489.186646,31.935663 491.020294,30.606718 492.013580,29.266037 
	C493.254852,30.419415 495.257019,31.385204 495.596222,32.760975 
	C496.658966,37.071705 497.094910,41.536961 497.834167,46.404358 
z"/>
<path fill="#47704C" opacity="1.000000" stroke="none" 
	d="
M329.998383,57.103138 
	C329.857422,59.782745 329.716248,62.024616 329.572723,64.303795 
	C325.306152,64.864273 323.833405,62.417538 323.494598,59.541267 
	C323.009613,55.423450 324.881348,52.370892 329.614258,50.478939 
	C329.762787,52.872086 329.880493,54.768745 329.998383,57.103138 
z"/>
<path fill="#47704C" opacity="1.000000" stroke="none" 
	d="
M577.571045,51.581032 
	C577.735657,55.941402 577.735657,59.986454 577.735657,64.257935 
	C573.277527,64.041412 571.494995,61.552082 571.800842,58.408569 
	C572.109436,55.236408 572.527649,51.250179 577.571045,51.581032 
z"/>
<path fill="#47704C" opacity="1.000000" stroke="none" 
	d="
M69.399368,32.034557 
	C69.755821,34.015877 70.076668,35.656231 70.042862,37.289249 
	C70.012764,38.742863 69.817406,41.332008 69.300117,41.434906 
	C67.304230,41.831921 64.978485,41.861950 63.138088,41.124413 
	C62.384190,40.822289 62.273724,38.202995 62.376064,36.671593 
	C62.483124,35.069588 62.990246,33.409012 63.688499,31.949097 
	C65.273506,28.635159 67.195122,28.039011 69.399368,32.034557 
z"/>
</svg>